<?xml version="1.0" encoding="UTF-8"?>
<svg version="1.1" xmlns="http://www.w3.org/2000/svg" width="500" height="500">
<path d="M0 0 C1.60661663 -0.00489478 3.21322974 -0.0110873 4.81983691 -0.01845789 C9.21495137 -0.03480639 13.60988585 -0.03254987 18.00502002 -0.02708292 C22.75298232 -0.02440639 27.50089732 -0.0389563 32.24884033 -0.05117798 C41.54368936 -0.07220874 50.83847597 -0.07677414 60.13334598 -0.07499009 C67.69162528 -0.07368114 75.24988514 -0.07749343 82.80816078 -0.08491516 C84.98749584 -0.08701442 87.1668309 -0.08911202 89.34616596 -0.09120798 C90.43098279 -0.09225151 91.51579963 -0.09329504 92.63348971 -0.09437019 C113.1403978 -0.11326349 133.64727011 -0.11222531 154.15418331 -0.10540086 C172.89639705 -0.09982762 191.638474 -0.12064315 210.38065579 -0.15376133 C229.64211794 -0.18753188 248.90351464 -0.20266236 268.16500694 -0.1980443 C278.97198033 -0.19580282 289.77882734 -0.20099562 300.58577538 -0.22593689 C309.78768389 -0.24699361 318.98939674 -0.2504988 328.19131341 -0.2316373 C332.88186442 -0.22250594 337.57205105 -0.22125628 342.26257324 -0.24199295 C346.56542064 -0.26080447 350.86760782 -0.25608668 355.17043088 -0.23344713 C356.71816892 -0.22928685 358.2659586 -0.23337377 359.81364187 -0.24704307 C374.34882237 -0.36656739 387.11239967 2.8400029 399.09248352 11.39440918 C399.98451477 12.02991699 400.87654602 12.6654248 401.79560852 13.32019043 C415.7451968 23.97720829 425.69885977 39.07431267 429.09248352 56.39440918 C429.51119199 61.71045134 429.49870705 67.0075044 429.47343445 72.33520508 C429.47689622 73.93316005 429.48166425 75.53111263 429.48761618 77.12906027 C429.50008455 81.49544549 429.49397486 85.8616328 429.48465753 90.22801852 C429.47785024 94.94656607 429.48835658 99.66508035 429.49659729 104.38362122 C429.50991892 113.61751031 429.50706388 122.85132614 429.49835937 132.08521807 C429.49157705 139.59154207 429.49066847 147.09784557 429.49393082 154.60417175 C429.49439052 155.67357021 429.49485021 156.74296867 429.49532384 157.84477314 C429.49628305 160.01741223 429.49725569 162.19005131 429.49824162 164.36269039 C429.50679091 184.72308105 429.4969686 205.08343116 429.48084052 225.44381517 C429.46743776 242.90409208 429.46976599 260.36430914 429.4835968 277.82458496 C429.49966074 298.11341858 429.50596698 318.40221668 429.49676001 338.69105577 C429.49580439 340.85558605 429.49486128 343.02011632 429.49393082 345.18464661 C429.49346799 346.24956458 429.49300516 347.31448256 429.49252831 348.41167077 C429.48994087 355.90671397 429.49430413 363.40173459 429.50136948 370.89677429 C429.5097937 380.03396103 429.50748491 389.17107048 429.49152724 398.3082484 C429.48365698 402.96784396 429.4805317 407.62731076 429.4904747 412.28690529 C429.49944789 416.55667438 429.49444571 420.82619599 429.47854204 425.0959428 C429.47520533 426.6361739 429.4768632 428.17642613 429.48416941 429.71664351 C429.52202013 438.36267869 428.95290564 446.16834497 426.09248352 454.39440918 C425.79230076 455.27821841 425.492118 456.16202764 425.1828388 457.07261896 C419.43819642 473.37155229 406.0495974 486.36139963 390.96748352 494.20690918 C382.66653022 498.12643721 374.69988944 500.5159677 365.48245907 500.52583694 C364.82857276 500.52788958 364.17468646 500.52994221 363.50098541 500.53205705 C361.3066072 500.53771823 359.11229193 500.53627089 356.91790771 500.53485107 C355.32997108 500.53743522 353.74203509 500.54044852 352.1541 500.54385448 C347.78755336 500.55192203 343.42102316 500.55371391 339.05446994 500.55445194 C334.34603171 500.55630295 329.637602 500.56385059 324.9291687 500.57058716 C314.63146798 500.58416985 304.33377115 500.59019526 294.03606296 500.59459782 C287.60507611 500.59736066 281.17409077 500.60159813 274.74310493 500.60610199 C256.93511137 500.61829518 239.12711901 500.628594 221.31912136 500.63197708 C220.17931777 500.63219665 219.03951417 500.63241621 217.86517108 500.63264243 C216.72264717 500.63286071 215.58012326 500.63307899 214.40297741 500.63330388 C212.08780952 500.63374735 209.77264164 500.63419391 207.45747375 500.63464355 C206.30907169 500.63486498 205.16066962 500.63508641 203.97746748 500.63531455 C185.37521089 500.63926135 166.7729935 500.65671154 148.17075204 500.68000308 C129.06880462 500.70372704 109.96687686 500.71617943 90.86491448 500.717345 C80.14126931 500.71826124 69.4176752 500.72400052 58.69404411 500.74216461 C49.56114219 500.75757976 40.42830711 500.76267774 31.29539465 500.75442651 C26.63773504 500.75052487 21.98020997 500.75142582 17.32256699 500.76548386 C13.05313441 500.77825199 8.78393707 500.77699978 4.51450468 500.76489314 C2.9754176 500.76294117 1.43631369 500.76599136 -0.10274977 500.77473751 C-20.31243019 500.88225199 -36.84803091 494.95334489 -51.45732117 480.87683105 C-66.41410687 465.58767234 -71.38458832 448.17312501 -71.29519653 427.34681702 C-71.29937663 425.74942382 -71.30485783 424.1520336 -71.31151634 422.55464882 C-71.32590094 418.19438997 -71.32174824 413.83432126 -71.31434953 409.47405231 C-71.30960282 404.76025131 -71.32214092 400.04649057 -71.33236694 395.33270264 C-71.34953044 386.10964746 -71.3504001 376.88666048 -71.34515404 367.66359348 C-71.34110681 360.16493744 -71.34256246 352.6663015 -71.3479023 345.16764641 C-71.34865072 344.09896088 -71.34939914 343.03027536 -71.35017024 341.92920543 C-71.35170177 339.75793934 -71.35324012 337.58667325 -71.35478521 335.41540717 C-71.36850121 315.07116846 -71.36307872 294.72696824 -71.3516 274.38273042 C-71.34166693 255.78480751 -71.35461119 237.18698409 -71.37853419 218.58907653 C-71.40293589 199.47446375 -71.41253052 180.35989728 -71.40588146 161.24526924 C-71.40239184 150.5211297 -71.40460446 139.79706666 -71.42213249 129.07293892 C-71.43686776 119.94460148 -71.43747246 110.81639444 -71.42006158 101.68805952 C-71.41156048 97.03424658 -71.4093803 92.38066645 -71.42471313 87.72686577 C-71.43859654 83.46005381 -71.43375045 79.19367331 -71.4144739 74.92688607 C-71.41072478 73.39001276 -71.41360425 71.85310458 -71.42408555 70.31626243 C-71.54822563 50.70720546 -64.90885375 34.05676483 -51.40605164 19.87683105 C-36.79753428 5.42539453 -20.00556 -0.07571096 0 0 Z " fill="#C0A4EE" transform="translate(70.90751647949219,-0.3944091796875)"/>
<path d="M0 0 C2.60546875 1.2578125 2.60546875 1.2578125 5.1875 3.125 C6.73824219 4.22328125 6.73824219 4.22328125 8.3203125 5.34375 C8.89813477 5.76269531 9.47595703 6.18164062 10.07128906 6.61328125 C12.21462833 8.15431505 14.38201655 9.65686434 16.5546875 11.15625 C25.93687289 17.64438633 35.18005043 24.30017019 44.34155273 31.09570312 C49.72550278 35.0825629 55.17155549 38.94468667 60.69921875 42.73046875 C64.63827681 45.42880228 68.5378316 48.18267244 72.4375 50.9375 C73.15123779 51.44144287 73.86497559 51.94538574 74.6003418 52.46459961 C78.11617316 54.95023848 81.62558213 57.44442524 85.125 59.953125 C86.09095093 60.64547241 86.09095093 60.64547241 87.07641602 61.35180664 C88.28885921 62.22197281 89.50033536 63.09348849 90.71069336 63.96655273 C93.7492721 66.15434155 93.7492721 66.15434155 97 68 C96.98889694 67.23436234 96.97779388 66.46872467 96.96635437 65.67988586 C96.86606784 58.45587348 96.78999319 51.23219973 96.74093914 44.00767231 C96.71487159 40.29363057 96.67952791 36.58016514 96.62280273 32.86645508 C96.56837786 29.28080287 96.53855808 25.69570409 96.52561378 22.10967064 C96.51639236 20.74329098 96.49838419 19.37694081 96.47134972 18.0107975 C96.26751519 7.28124997 96.26751519 7.28124997 98.11123657 4.0562439 C99.46801758 2.68432617 99.46801758 2.68432617 102 1 C102.33 0.67 102.66 0.34 103 0 C107.17604057 -0.69600676 109.66161466 -0.7669893 113.37890625 1.36328125 C115.72765475 3.09525915 118.02517594 4.87974399 120.31005859 6.69482422 C123.53687628 9.1869605 126.90614192 11.48132964 130.25 13.8125 C135.68645028 17.63350331 141.08691604 21.49715861 146.4375 25.4375 C159.71594524 35.21181345 173.10648555 44.79741083 186.66186523 54.18481445 C193.38883838 58.85298259 200.02420748 63.62561127 206.60546875 68.49609375 C214.42026449 74.27828149 222.38099509 79.86208579 230.32446289 85.46533203 C231.76671644 86.48272692 233.20861522 87.50062494 234.65014648 88.51904297 C238.13468212 90.98073092 241.62307082 93.4364153 245.12109375 95.87890625 C246.39333271 96.77329024 247.66547312 97.66781442 248.9375 98.5625 C249.52273438 98.96791016 250.10796875 99.37332031 250.7109375 99.79101562 C253.44267134 101.72026171 255.11725508 103.17588263 257 106 C257.47330406 111.11168387 256.95558175 113.84340699 254 118 C251.85351563 119.78662109 251.85351563 119.78662109 249.40625 121.3984375 C248.51679688 121.99495117 247.62734375 122.59146484 246.7109375 123.20605469 C245.81632812 123.79805664 244.92171875 124.39005859 244 125 C242.42381458 126.09164959 240.85078744 127.18787609 239.28125 128.2890625 C238.50378418 128.83119385 237.72631836 129.3733252 236.92529297 129.93188477 C226.53909117 137.18257024 216.24832864 144.55614325 206 152 C195.88412322 159.34765055 185.72158493 166.61571948 175.46582031 173.76708984 C166.90501645 179.74572175 158.44955536 185.86567108 150 192 C140.92373147 198.58093275 131.83591854 205.14458071 122.6875 211.625 C121.98810303 212.12201416 121.28870605 212.61902832 120.56811523 213.13110352 C109.52133057 220.93161865 109.52133057 220.93161865 103 220 C100.36983839 217.8272578 98.52663106 216.05326212 97 213 C96.90871707 211.05955723 96.88247752 209.1159244 96.88647461 207.17333984 C96.88658791 205.34166763 96.88658791 205.34166763 96.88670349 203.47299194 C96.89181048 202.13564005 96.89702648 200.79828857 96.90234375 199.4609375 C96.9042086 198.09616141 96.90563219 196.73138466 96.90663147 195.36660767 C96.91045137 191.77284907 96.92027717 188.17913083 96.93133545 184.58538818 C96.94156089 180.91891018 96.94613152 177.25242565 96.95117188 173.5859375 C96.9618999 166.39060659 96.97897001 159.19530895 97 152 C95.57219871 152.9482212 94.14488484 153.89717636 92.71777344 154.84643555 C91.92288513 155.37480515 91.12799683 155.90317474 90.309021 156.44755554 C87.24405964 158.50824805 84.24269725 160.64885776 81.25 162.8125 C76.6351929 166.13043378 71.99409296 169.4018819 67.3125 172.625 C62.43933208 175.98560251 57.63278346 179.42287704 52.85546875 182.91796875 C43.12020122 190.01632387 33.26251306 196.94679093 23.4140625 203.88671875 C20.34290257 206.0511487 17.2757325 208.2210984 14.2109375 210.39453125 C13.04365112 211.22138428 13.04365112 211.22138428 11.8527832 212.06494141 C10.35316561 213.12735037 8.85427613 214.19078801 7.35620117 215.25537109 C6.68306885 215.73184082 6.00993652 216.20831055 5.31640625 216.69921875 C4.72287354 217.12033936 4.12934082 217.54145996 3.51782227 217.9753418 C-0.07342085 220.39973416 -2.68394019 220.57547464 -7 220 C-10.04656844 217.64717882 -12.51959045 214.75148756 -13.54821491 211.00130618 C-13.75941514 208.76834353 -13.78140352 206.60706041 -13.73498535 204.36457825 C-13.74152303 203.52020775 -13.74806071 202.67583725 -13.7547965 201.80587977 C-13.76931016 198.98939239 -13.74109717 196.1750014 -13.71289062 193.35864258 C-13.71447306 191.3345657 -13.71866969 189.31048943 -13.72528076 187.28642273 C-13.73553655 181.79884948 -13.70850564 176.31202811 -13.67422676 170.82457566 C-13.64413147 165.08226256 -13.64650234 159.33995873 -13.64489746 153.59757996 C-13.63751621 143.95790791 -13.60759932 134.31852103 -13.5625 124.67895508 C-13.5047041 112.30027856 -13.48404815 99.92183135 -13.4751358 87.54303455 C-13.46717985 76.90400627 -13.4421795 66.26502795 -13.41444206 55.62603545 C-13.40624226 52.20379929 -13.40039203 48.7815649 -13.39485168 45.3593235 C-13.38507078 39.98717113 -13.36467272 34.615158 -13.33597565 29.24307442 C-13.32692538 27.26937874 -13.3212513 25.29566433 -13.31916046 23.32194901 C-13.31567194 20.63264944 -13.29991467 17.94369881 -13.28088379 15.25447083 C-13.28261675 14.46936168 -13.28434972 13.68425254 -13.2861352 12.8753522 C-13.23303141 7.88987648 -12.784297 4.85038207 -9.3125 1.25 C-6.05376727 -0.51147715 -3.66867233 -0.27261896 0 0 Z " fill="#040204" transform="translate(133,140)"/>
<path d="M0 0 C1.60661663 -0.00489478 3.21322974 -0.0110873 4.81983691 -0.01845789 C9.21495137 -0.03480639 13.60988585 -0.03254987 18.00502002 -0.02708292 C22.75298232 -0.02440639 27.50089732 -0.0389563 32.24884033 -0.05117798 C41.54368936 -0.07220874 50.83847597 -0.07677414 60.13334598 -0.07499009 C67.69162528 -0.07368114 75.24988514 -0.07749343 82.80816078 -0.08491516 C84.98749584 -0.08701442 87.1668309 -0.08911202 89.34616596 -0.09120798 C90.43098279 -0.09225151 91.51579963 -0.09329504 92.63348971 -0.09437019 C113.1403978 -0.11326349 133.64727011 -0.11222531 154.15418331 -0.10540086 C172.89639705 -0.09982762 191.638474 -0.12064315 210.38065579 -0.15376133 C229.64211794 -0.18753188 248.90351464 -0.20266236 268.16500694 -0.1980443 C278.97198033 -0.19580282 289.77882734 -0.20099562 300.58577538 -0.22593689 C309.78768389 -0.24699361 318.98939674 -0.2504988 328.19131341 -0.2316373 C332.88186442 -0.22250594 337.57205105 -0.22125628 342.26257324 -0.24199295 C346.56542064 -0.26080447 350.86760782 -0.25608668 355.17043088 -0.23344713 C356.71816892 -0.22928685 358.2659586 -0.23337377 359.81364187 -0.24704307 C374.34882237 -0.36656739 387.11239967 2.8400029 399.09248352 11.39440918 C399.98451477 12.02991699 400.87654602 12.6654248 401.79560852 13.32019043 C415.7451968 23.97720829 425.69885977 39.07431267 429.09248352 56.39440918 C429.51119199 61.71045134 429.49870705 67.0075044 429.47343445 72.33520508 C429.47689622 73.93316005 429.48166425 75.53111263 429.48761618 77.12906027 C429.50008455 81.49544549 429.49397486 85.8616328 429.48465753 90.22801852 C429.47785024 94.94656607 429.48835658 99.66508035 429.49659729 104.38362122 C429.50991892 113.61751031 429.50706388 122.85132614 429.49835937 132.08521807 C429.49157705 139.59154207 429.49066847 147.09784557 429.49393082 154.60417175 C429.49439052 155.67357021 429.49485021 156.74296867 429.49532384 157.84477314 C429.49628305 160.01741223 429.49725569 162.19005131 429.49824162 164.36269039 C429.50679091 184.72308105 429.4969686 205.08343116 429.48084052 225.44381517 C429.46743776 242.90409208 429.46976599 260.36430914 429.4835968 277.82458496 C429.49966074 298.11341858 429.50596698 318.40221668 429.49676001 338.69105577 C429.49580439 340.85558605 429.49486128 343.02011632 429.49393082 345.18464661 C429.49346799 346.24956458 429.49300516 347.31448256 429.49252831 348.41167077 C429.48994087 355.90671397 429.49430413 363.40173459 429.50136948 370.89677429 C429.5097937 380.03396103 429.50748491 389.17107048 429.49152724 398.3082484 C429.48365698 402.96784396 429.4805317 407.62731076 429.4904747 412.28690529 C429.49944789 416.55667438 429.49444571 420.82619599 429.47854204 425.0959428 C429.47520533 426.6361739 429.4768632 428.17642613 429.48416941 429.71664351 C429.52202013 438.36267869 428.95290564 446.16834497 426.09248352 454.39440918 C425.79230076 455.27821841 425.492118 456.16202764 425.1828388 457.07261896 C419.43819642 473.37155229 406.0495974 486.36139963 390.96748352 494.20690918 C382.66653022 498.12643721 374.69988944 500.5159677 365.48245907 500.52583694 C364.82857276 500.52788958 364.17468646 500.52994221 363.50098541 500.53205705 C361.3066072 500.53771823 359.11229193 500.53627089 356.91790771 500.53485107 C355.32997108 500.53743522 353.74203509 500.54044852 352.1541 500.54385448 C347.78755336 500.55192203 343.42102316 500.55371391 339.05446994 500.55445194 C334.34603171 500.55630295 329.637602 500.56385059 324.9291687 500.57058716 C314.63146798 500.58416985 304.33377115 500.59019526 294.03606296 500.59459782 C287.60507611 500.59736066 281.17409077 500.60159813 274.74310493 500.60610199 C256.93511137 500.61829518 239.12711901 500.628594 221.31912136 500.63197708 C220.17931777 500.63219665 219.03951417 500.63241621 217.86517108 500.63264243 C216.72264717 500.63286071 215.58012326 500.63307899 214.40297741 500.63330388 C212.08780952 500.63374735 209.77264164 500.63419391 207.45747375 500.63464355 C206.30907169 500.63486498 205.16066962 500.63508641 203.97746748 500.63531455 C185.37521089 500.63926135 166.7729935 500.65671154 148.17075204 500.68000308 C129.06880462 500.70372704 109.96687686 500.71617943 90.86491448 500.717345 C80.14126931 500.71826124 69.4176752 500.72400052 58.69404411 500.74216461 C49.56114219 500.75757976 40.42830711 500.76267774 31.29539465 500.75442651 C26.63773504 500.75052487 21.98020997 500.75142582 17.32256699 500.76548386 C13.05313441 500.77825199 8.78393707 500.77699978 4.51450468 500.76489314 C2.9754176 500.76294117 1.43631369 500.76599136 -0.10274977 500.77473751 C-20.31243019 500.88225199 -36.84803091 494.95334489 -51.45732117 480.87683105 C-66.41410687 465.58767234 -71.38458832 448.17312501 -71.29519653 427.34681702 C-71.29937663 425.74942382 -71.30485783 424.1520336 -71.31151634 422.55464882 C-71.32590094 418.19438997 -71.32174824 413.83432126 -71.31434953 409.47405231 C-71.30960282 404.76025131 -71.32214092 400.04649057 -71.33236694 395.33270264 C-71.34953044 386.10964746 -71.3504001 376.88666048 -71.34515404 367.66359348 C-71.34110681 360.16493744 -71.34256246 352.6663015 -71.3479023 345.16764641 C-71.34865072 344.09896088 -71.34939914 343.03027536 -71.35017024 341.92920543 C-71.35170177 339.75793934 -71.35324012 337.58667325 -71.35478521 335.41540717 C-71.36850121 315.07116846 -71.36307872 294.72696824 -71.3516 274.38273042 C-71.34166693 255.78480751 -71.35461119 237.18698409 -71.37853419 218.58907653 C-71.40293589 199.47446375 -71.41253052 180.35989728 -71.40588146 161.24526924 C-71.40239184 150.5211297 -71.40460446 139.79706666 -71.42213249 129.07293892 C-71.43686776 119.94460148 -71.43747246 110.81639444 -71.42006158 101.68805952 C-71.41156048 97.03424658 -71.4093803 92.38066645 -71.42471313 87.72686577 C-71.43859654 83.46005381 -71.43375045 79.19367331 -71.4144739 74.92688607 C-71.41072478 73.39001276 -71.41360425 71.85310458 -71.42408555 70.31626243 C-71.54822563 50.70720546 -64.90885375 34.05676483 -51.40605164 19.87683105 C-36.79753428 5.42539453 -20.00556 -0.07571096 0 0 Z M-34.90751648 33.39440918 C-35.5082196 33.86878418 -36.10892273 34.34315918 -36.72782898 34.83190918 C-43.70185113 40.83644843 -48.0418224 50.79732693 -50.90751648 59.39440918 C-51.00369154 61.46953349 -51.03847551 63.54766982 -51.04173756 65.62501907 C-51.0461954 66.93846526 -51.05065324 68.25191145 -51.05524617 69.60515904 C-51.05515687 71.07163192 -51.05496701 72.53810479 -51.0546875 74.00457764 C-51.05798599 75.55565189 -51.06171152 77.10672528 -51.06582898 78.65779757 C-51.07585957 82.93185651 -51.0795675 87.20590141 -51.08221829 91.47997046 C-51.08611843 96.0855707 -51.09569724 100.69115979 -51.10443115 105.29675293 C-51.12420799 116.42804188 -51.13426517 127.55933176 -51.14315894 138.69063389 C-51.14754149 143.93367709 -51.15290854 149.17671927 -51.15814781 154.41976166 C-51.1751644 171.85279251 -51.18965679 189.28582274 -51.19689655 206.71886063 C-51.19880644 211.24449921 -51.20072677 215.7701378 -51.2026825 220.29577637 C-51.20316624 221.42059759 -51.20364998 222.54541881 -51.20414837 223.70432553 C-51.21244187 241.91023788 -51.23776536 260.11608437 -51.27026317 278.32196799 C-51.30336366 297.01819188 -51.32134818 315.71438236 -51.32454079 334.41063571 C-51.32670356 344.9058304 -51.33541759 355.40092918 -51.36100197 365.89609528 C-51.38275014 374.8382985 -51.39073931 383.78038252 -51.38103519 392.72260919 C-51.37650186 397.28143138 -51.37831996 401.84000787 -51.39779663 406.39879608 C-51.41551146 410.58155658 -51.41436379 414.76389366 -51.39889934 418.94665918 C-51.39653576 420.45086931 -51.40078112 421.95510942 -51.41272799 423.45927396 C-51.52023038 437.90210256 -49.62005458 451.12786499 -39.90751648 462.39440918 C-39.28361023 463.16269043 -38.65970398 463.93097168 -38.01689148 464.72253418 C-31.16328888 472.41321801 -21.60768897 477.16101835 -11.90751648 480.39440918 C-9.80271007 480.48725467 -7.69500786 480.51814891 -5.58815479 480.51745701 C-4.94142289 480.51861085 -4.29469098 480.5197647 -3.62836114 480.52095351 C-1.44638844 480.52361481 0.73551148 480.51910199 2.91748047 480.5146637 C4.49161875 480.5150995 6.06575696 480.51597457 7.63989478 480.51725286 C11.97712557 480.51949607 16.31433181 480.51547889 20.65155947 480.5104748 C25.32435204 480.50616802 29.99714314 480.50761689 34.66993713 480.50837708 C42.76973487 480.50890216 50.86952458 480.50575692 58.9693203 480.50013924 C70.680356 480.49202222 82.39138781 480.48940881 94.10242603 480.48815124 C113.10147409 480.48596105 132.10051787 480.47930182 151.0995636 480.46984863 C169.55854775 480.46067369 188.01753075 480.45359326 206.47651672 480.44934082 C207.61377387 480.4490781 208.75103101 480.44881537 209.9227505 480.44854469 C215.62786973 480.44723968 221.33298898 480.44597596 227.03810823 480.44473279 C274.38956962 480.43436117 321.74102636 480.41674371 369.09248352 480.39440918 C369.09248352 479.73440918 369.09248352 479.07440918 369.09248352 478.39440918 C370.30935852 478.39440918 371.52623352 478.39440918 372.77998352 478.39440918 C381.85896929 477.37767734 391.11472469 470.48525939 397.24482727 463.92565918 C406.73841943 450.91963863 409.395151 437.97795949 409.36663818 422.16278076 C409.37109425 420.60525149 409.3764095 419.04772447 409.38250691 417.49020076 C409.39665289 413.22163044 409.39835085 408.95313305 409.39791 404.68454266 C409.39956119 400.07635182 409.41263324 395.46819078 409.42410278 390.86001587 C409.44692731 380.78975751 409.45487045 370.71952026 409.45992923 360.64923954 C409.46318879 354.35877482 409.46971279 348.06831619 409.47693062 341.77785492 C409.49649215 324.35319338 409.51289933 306.92853751 409.51580715 289.50386429 C409.51608851 287.83217828 409.51608851 287.83217828 409.51637555 286.12672083 C409.51674179 283.86756627 409.51710549 281.6084117 409.51746666 279.34925714 C409.51764947 278.22784872 409.51783228 277.1064403 409.51802063 275.9510498 C409.51820118 274.82826916 409.51838173 273.70548851 409.51856775 272.54868421 C409.52210972 254.3539745 409.54913558 236.15938311 409.58651852 217.96471444 C409.6246127 199.27399178 409.6439647 180.58332783 409.64426666 161.89256549 C409.64485093 151.40255333 409.65332355 140.91268238 409.68226433 130.4227066 C409.70679287 121.49112803 409.71405101 112.55974221 409.6990168 103.62813905 C409.69185433 99.07365646 409.69267679 94.51955437 409.7154274 89.96511459 C409.73608278 85.79002569 409.73335639 81.61560825 409.71255255 77.4405261 C409.70907018 75.93584597 409.7139143 74.43111674 409.72825699 72.92650095 C409.86555386 57.52200776 404.86160736 45.30928272 394.21748352 34.14440918 C388.17181795 28.35208578 380.23686347 22.67501172 371.65498352 22.20690918 C370.80935852 22.26878418 369.96373352 22.33065918 369.09248352 22.39440918 C369.09248352 21.73440918 369.09248352 21.07440918 369.09248352 20.39440918 C320.79368549 20.25700805 272.49490818 20.15131667 224.19595315 20.0880172 C218.49089004 20.08051317 212.78582731 20.07274721 207.08076477 20.06481934 C205.94501289 20.06324547 204.80926101 20.06167161 203.6390924 20.06005006 C185.26092241 20.03395832 166.8828653 19.98665973 148.50476222 19.9314924 C129.64027464 19.87533829 110.77584609 19.84204696 91.91127837 19.82987821 C80.27536351 19.82165482 68.63976771 19.79570338 57.00395109 19.74691038 C49.01953624 19.7151391 41.03528579 19.70562118 33.05081235 19.71340092 C28.44745354 19.71723534 23.84465139 19.71145208 19.24139214 19.67917633 C15.01893407 19.64978817 10.79740229 19.64862441 6.57489987 19.66901581 C5.05512656 19.67153265 3.53529335 19.66408117 2.01563637 19.64511009 C-12.59356231 19.47347871 -23.93707328 23.5254161 -34.90751648 33.39440918 Z " fill="#040405" transform="translate(70.90751647949219,-0.3944091796875)"/>
<path d="M0 0 C7.8658082 4.49474754 7.8658082 4.49474754 11.05859375 6.84765625 C11.76588623 7.36473145 12.47317871 7.88180664 13.2019043 8.41455078 C13.93965088 8.95837402 14.67739746 9.50219727 15.4375 10.0625 C21.29570408 14.34064554 27.18927898 18.54543928 33.1875 22.625 C39.59190572 26.99088896 45.85960962 31.51635866 52.09375 36.12109375 C62.81853233 44.04156437 73.66772145 51.79058383 84.57421875 59.45825195 C90.82150799 63.85689825 97.01671904 68.32604555 103.20117188 72.8125 C103.91595703 73.33070313 104.63074219 73.84890625 105.3671875 74.3828125 C105.99737793 74.84059082 106.62756836 75.29836914 107.27685547 75.77001953 C108.82926318 76.87812807 110.41301282 77.94200855 112 79 C110.90924863 82.27225412 110.48511129 82.64173678 107.78125 84.49609375 C107.10489502 84.96611816 106.42854004 85.43614258 105.73168945 85.92041016 C104.99523193 86.4210498 104.25877441 86.92168945 103.5 87.4375 C101.94127224 88.51673357 100.38268233 89.59616623 98.82421875 90.67578125 C97.62224854 91.50263428 97.62224854 91.50263428 96.39599609 92.34619141 C92.68112123 94.91034082 88.99710412 97.51762937 85.3125 100.125 C84.60407959 100.62515625 83.89565918 101.1253125 83.16577148 101.640625 C73.48647255 108.4749082 63.85545989 115.37488046 54.25 122.3125 C53.49138672 122.860271 52.73277344 123.40804199 51.95117188 123.97241211 C48.13578079 126.72891143 44.32423964 129.49049084 40.51953125 132.26171875 C31.90212587 138.52763643 23.21407631 144.66014674 14.36743164 150.59960938 C10.96825101 152.89586633 7.68885598 155.19683742 4.578125 157.875 C2 160 2 160 0 160 C0 107.2 0 54.4 0 0 Z " fill="#EDCE86" transform="translate(250,170)"/>
<path d="M0 0 C2.92296105 1.46148053 5.18457959 2.75476812 7.765625 4.65234375 C8.48234375 5.17570313 9.1990625 5.6990625 9.9375 6.23828125 C10.700625 6.79902344 11.46375 7.35976562 12.25 7.9375 C18.11122954 12.21052541 24.00305785 16.41956737 30 20.5 C39.57150543 27.02667595 48.92227964 33.85311554 58.29101562 40.66601562 C59.81240856 41.77165644 61.33551668 42.87494105 62.86035156 43.97583008 C64.36756258 45.07341636 65.86447697 46.18528603 67.35058594 47.3112793 C71.01936648 50.05395596 74.4499873 52.30165878 78.6875 54.06640625 C83.52548872 56.2558382 87.35251408 58.23241962 90 63 C92.76508359 73.69848037 94.20062075 89.43554159 88.64941406 99.43212891 C85.21714925 103.14309934 80.94794775 104.99221145 76.34375 106.90966797 C72.21531866 108.83024863 68.73965452 111.63604848 65.125 114.375 C63.61427581 115.47581501 62.10123662 116.57345979 60.5859375 117.66796875 C59.83151367 118.21630371 59.07708984 118.76463867 58.29980469 119.32958984 C54.4547713 122.12234127 50.60252581 124.90509745 46.75 127.6875 C45.6221106 128.50214722 45.6221106 128.50214722 44.47143555 129.33325195 C36.18811295 135.31278394 27.88877945 141.2690317 19.53125 147.14453125 C18.76820557 147.68134521 18.00516113 148.21815918 17.21899414 148.77124023 C15.73748882 149.81265366 14.25496157 150.85261536 12.77124023 151.89086914 C9.8093956 153.97221289 6.93169688 156.0559435 4.12890625 158.3515625 C2 160 2 160 0 160 C0 107.2 0 54.4 0 0 Z " fill="#EDCD85" transform="translate(140,170)"/>
<path d="M0 0 C4.16138263 -0.08159574 7.9472484 0.01751476 12 1 C12 1.66 12 2.32 12 3 C136.41 3 260.82 3 389 3 C389 3.33 389 3.66 389 4 C340.59903728 4.06865058 292.19807948 4.1215209 243.79707766 4.15319599 C238.08428216 4.15694816 232.37148676 4.16083112 226.65869141 4.16479492 C225.52136566 4.16558185 224.38403992 4.16636878 223.21224976 4.16717956 C204.79127224 4.18023728 186.37032278 4.20389315 167.94936192 4.23145839 C149.05099766 4.25950239 130.1526481 4.27617413 111.25426388 4.28226548 C99.59079761 4.28638401 87.92741063 4.2993971 76.26396877 4.3237494 C68.26841053 4.33959416 60.27289336 4.34440321 52.27732056 4.34050413 C47.66271787 4.33858063 43.04825387 4.34155151 38.43367577 4.35761642 C34.2080511 4.37221988 29.98265833 4.37294946 25.75702298 4.36269668 C24.22929523 4.36142958 22.70155299 4.36523138 21.17385375 4.37464955 C13.57968789 4.41874034 6.95326025 4.38392299 0 1 C0 0.67 0 0.34 0 0 Z " fill="#9683B7" transform="translate(51,476)"/>
<path d="M0 0 C0.99 0.99 1.98 1.98 3 3 C2.01 3.495 2.01 3.495 1 4 C1.33 53.5 1.66 103 2 154 C2.33 153.67 2.66 153.34 3 153 C4.99958364 152.95919217 7.00045254 152.95745644 9 153 C6.03839944 156.12613393 3.90432869 158.04783565 0 160 C0 107.2 0 54.4 0 0 Z " fill="#E8CD9C" transform="translate(250,170)"/>
<path d="M0 0 C2.10937126 3.4565362 2.24721929 6.16286407 2.24050903 10.17559814 C2.24325836 11.44321991 2.24600769 12.71084167 2.24884033 14.01687622 C2.24176249 15.41912937 2.23449288 16.82138155 2.22705078 18.22363281 C2.22648656 19.70203646 2.22680344 21.18044067 2.22793579 22.65884399 C2.22850988 26.67092494 2.21674641 30.68288644 2.20278788 34.69493961 C2.19028997 38.88831541 2.18911076 43.0816939 2.18673706 47.27508545 C2.18051953 55.21523853 2.16410501 63.15533658 2.14403808 71.09546542 C2.12168759 80.13528172 2.11068779 89.17510064 2.10064721 98.21493769 C2.07973903 116.80998967 2.04455773 135.40499041 2 154 C2.66 154.33 3.32 154.66 4 155 C3.01 155.33 2.02 155.66 1 156 C0 155 0 155 -0.12304783 152.45625973 C-0.12212604 151.31415822 -0.12120424 150.17205671 -0.12025452 148.99534607 C-0.12162918 147.68977753 -0.12300385 146.38420898 -0.12442017 145.03907776 C-0.12088055 143.57870461 -0.11724573 142.11833169 -0.11352539 140.65795898 C-0.11324353 139.13073732 -0.11340123 137.60351553 -0.1139679 136.07629395 C-0.11425591 131.91738312 -0.10835855 127.75850089 -0.10139394 123.59959674 C-0.09516106 119.25805476 -0.09455665 114.91651219 -0.09336853 110.57496643 C-0.09025502 102.34786418 -0.08204137 94.12077514 -0.07201904 85.89367872 C-0.06085851 76.52986936 -0.05534761 67.16605938 -0.05032361 57.80224502 C-0.03985877 38.53482251 -0.02225895 19.26741231 0 0 Z " fill="#F3D38E" transform="translate(141,171)"/>
<path d="M0 0 C0.66 0.33 1.32 0.66 2 1 C-2.60136502 6.53601728 -7.46398272 11.39863498 -13 16 C-13 10.79628205 -8.49504984 7.5790344 -5 4 C-3.37707762 2.6137538 -1.7331451 1.24569804 0 0 Z " fill="#6A6A6A" transform="translate(27,13)"/>
<path d="M0 0 C0.66 0.33 1.32 0.66 2 1 C1.01 2.485 1.01 2.485 0 4 C-0.66 4 -1.32 4 -2 4 C-1.67 5.32 -1.34 6.64 -1 8 C-2.36125 8.185625 -2.36125 8.185625 -3.75 8.375 C-7.79304834 9.1525093 -10.09712721 10.09712721 -13 13 C-13.99 12.67 -14.98 12.34 -16 12 C-10.72 8.04 -5.44 4.08 0 0 Z " fill="#AB97CD" transform="translate(192,317)"/>
<path d="M0 0 C0 0.99 0 1.98 0 3 C-1.65071396 4.02611949 -3.31970006 5.02308143 -5 6 C-5.495 6.70125 -5.99 7.4025 -6.5 8.125 C-8 10 -8 10 -10.6875 10.75 C-11.450625 10.8325 -12.21375 10.915 -13 11 C-13 10.01 -13 9.02 -13 8 C-10.6640625 5.95703125 -10.6640625 5.95703125 -7.625 3.8125 C-6.12839844 2.73935547 -6.12839844 2.73935547 -4.6015625 1.64453125 C-2 0 -2 0 0 0 Z " fill="#B29ED6" transform="translate(176,330)"/>
<path d="M0 0 C6.4266106 3.42752566 12.16594374 7.65346984 18 12 C15 13 15 13 12 12 C12 11.34 12 10.68 12 10 C11.34 10 10.68 10 10 10 C10 9.34 10 8.68 10 8 C8.68 7.67 7.36 7.34 6 7 C6 6.34 6 5.68 6 5 C5.38125 4.9175 4.7625 4.835 4.125 4.75 C2 4 2 4 0.75 1.9375 C0.5025 1.298125 0.255 0.65875 0 0 Z " fill="#DCC38E" transform="translate(206,217)"/>
<path d="M0 0 C-2.80804268 2.96404505 -5.18315774 5.44499019 -9 7 C-9.1875 4.625 -9.1875 4.625 -9 2 C-5.5647952 -0.29013653 -4.014669 -0.17842973 0 0 Z " fill="#DFC78F" transform="translate(259,323)"/>
<path d="M0 0 C0.66 0.99 1.32 1.98 2 3 C-2.455 5.97 -2.455 5.97 -7 9 C-6.67 7.35 -6.34 5.7 -6 4 C-5.01 3.67 -4.02 3.34 -3 3 C-3 2.34 -3 1.68 -3 1 C-2.01 0.67 -1.02 0.34 0 0 Z " fill="#DDC382" transform="translate(300,291)"/>
<path d="M0 0 C4.28477792 2.30718811 7.72291137 4.32966073 11 8 C6.545 7.01 6.545 7.01 2 6 C2 4.68 2 3.36 2 2 C1.34 2 0.68 2 0 2 C0 1.34 0 0.68 0 0 Z " fill="#DBC38A" transform="translate(344,237)"/>
<path d="M0 0 C1.508013 0.92455559 3.00624917 1.8650747 4.5 2.8125 C5.75296875 3.59560547 5.75296875 3.59560547 7.03125 4.39453125 C7.6809375 4.92433594 8.330625 5.45414063 9 6 C9 6.99 9 7.98 9 9 C8.01 9.33 7.02 9.66 6 10 C5.5875 9.05125 5.175 8.1025 4.75 7.125 C2.9959869 3.99283376 2.29148243 3.13499394 -1 2 C-0.67 1.34 -0.34 0.68 0 0 Z " fill="#D4BC84" transform="translate(286,195)"/>
<path d="M0 0 C0.33 0.66 0.66 1.32 1 2 C0.34 2 -0.32 2 -1 2 C-1.268125 2.61875 -1.53625 3.2375 -1.8125 3.875 C-3 6 -3 6 -6 8 C-7.32 7.67 -8.64 7.34 -10 7 C-6.7 4.69 -3.4 2.38 0 0 Z " fill="#A995CA" transform="translate(356,279)"/>
<path d="M0 0 C0.33 0.99 0.66 1.98 1 3 C-0.32 3.33 -1.64 3.66 -3 4 C-3 4.66 -3 5.32 -3 6 C-5.375 7.0625 -5.375 7.0625 -8 8 C-8.66 7.67 -9.32 7.34 -10 7 C-6.7 4.69 -3.4 2.38 0 0 Z " fill="#AF9BD1" transform="translate(214,302)"/>
<path d="M0 0 C1.65 0 3.3 0 5 0 C5.33 1.32 5.66 2.64 6 4 C6.66 4 7.32 4 8 4 C7.67 4.99 7.34 5.98 7 7 C5.82780457 6.21654285 4.66236332 5.42297164 3.5 4.625 C2.8503125 4.18414062 2.200625 3.74328125 1.53125 3.2890625 C1.0259375 2.86367187 0.520625 2.43828125 0 2 C0 1.34 0 0.68 0 0 Z " fill="#B49EDA" transform="translate(214,196)"/>
<path d="M0 0 C1.32 0.99 2.64 1.98 4 3 C1.36 3.99 -1.28 4.98 -4 6 C-4.66 5.34 -5.32 4.68 -6 4 C-4.02 2.68 -2.04 1.36 0 0 Z " fill="#AE98D3" transform="translate(307,314)"/>
<path d="M0 0 C0.66 0.33 1.32 0.66 2 1 C0.59785066 2.36919284 -0.82228473 3.71998709 -2.25 5.0625 C-3.43335938 6.19365234 -3.43335938 6.19365234 -4.640625 7.34765625 C-5.41921875 7.89292969 -6.1978125 8.43820312 -7 9 C-8.32 8.67 -9.64 8.34 -11 8 C-7.37 5.36 -3.74 2.72 0 0 Z " fill="#21150C" transform="translate(285,305)"/>
<path d="M0 0 C-0.33 1.32 -0.66 2.64 -1 4 C-1.99 4 -2.98 4 -4 4 C-4.99 5.485 -4.99 5.485 -6 7 C-7.32 6.67 -8.64 6.34 -10 6 C-8.71283353 4.99421411 -7.42011342 3.99553202 -6.125 3 C-5.40570313 2.443125 -4.68640625 1.88625 -3.9453125 1.3125 C-2 0 -2 0 0 0 Z " fill="#A895CA" transform="translate(300,320)"/>
<path d="M0 0 C3.87132028 0.57352893 6.08172796 2.48704352 9 5 C8.67 5.66 8.34 6.32 8 7 C6.35 7 4.7 7 3 7 C3.66 5.68 4.32 4.36 5 3 C3.35 2.67 1.7 2.34 0 2 C0 1.34 0 0.68 0 0 Z " fill="#E5CC8E" transform="translate(317,219)"/>
<path d="M0 0 C2.125 0.375 2.125 0.375 4 1 C4.103125 1.61875 4.20625 2.2375 4.3125 2.875 C4.87525373 5.36526484 4.87525373 5.36526484 8 7 C7.01 7.495 7.01 7.495 6 8 C3.36 6.02 0.72 4.04 -2 2 C-1.34 1.34 -0.68 0.68 0 0 Z " fill="#AF9AD3" transform="translate(333,201)"/>
<path d="M0 0 C0.33 0.66 0.66 1.32 1 2 C-2.222107 5.8665284 -5.14922412 6.88059018 -10 8 C-6.88983545 4.71211176 -3.98381075 2.16264012 0 0 Z " fill="#AE9BCF" transform="translate(345,287)"/>
<path d="M0 0 C3.93673644 1.31224548 6.22719294 2.91910327 9 6 C8.01 6.495 8.01 6.495 7 7 C7 6.34 7 5.68 7 5 C5.865625 4.87625 4.73125 4.7525 3.5625 4.625 C2.386875 4.41875 1.21125 4.2125 0 4 C-0.33 3.34 -0.66 2.68 -1 2 C-0.67 1.34 -0.34 0.68 0 0 Z " fill="#D8C08D" transform="translate(173,194)"/>
<path d="M0 0 C0.66 0 1.32 0 2 0 C2.33 1.65 2.66 3.3 3 5 C4.32 5.33 5.64 5.66 7 6 C5.3125 6.8125 5.3125 6.8125 3 7 C0.25 4.5625 0.25 4.5625 -2 2 C-1.34 2 -0.68 2 0 2 C0 1.34 0 0.68 0 0 Z " fill="#AB96CD" transform="translate(306,181)"/>
<path d="M0 0 C0.99 0 1.98 0 3 0 C3 0.66 3 1.32 3 2 C1.25 3.2890625 1.25 3.2890625 -1 4.625 C-1.7425 5.07101562 -2.485 5.51703125 -3.25 5.9765625 C-3.8275 6.31429688 -4.405 6.65203125 -5 7 C-5 5.68 -5 4.36 -5 3 C-3.35 2.67 -1.7 2.34 0 2 C0 1.34 0 0.68 0 0 Z " fill="#D4BD86" transform="translate(181,298)"/>
<path d="M0 0 C0.93065133 2.60582371 1.14917407 3.64198224 0.0625 6.25 C-0.4634375 7.11625 -0.4634375 7.11625 -1 8 C-2.32 7.34 -3.64 6.68 -5 6 C-4.01 5.67 -3.02 5.34 -2 5 C-0.78130071 2.49552484 -0.78130071 2.49552484 0 0 Z " fill="#AB98CD" transform="translate(389,253)"/>
<path d="M0 0 C-4.455 2.97 -4.455 2.97 -9 6 C-9 5.01 -9 4.02 -9 3 C-8.34 3 -7.68 3 -7 3 C-7 2.34 -7 1.68 -7 1 C-3.375 -1.125 -3.375 -1.125 0 0 Z " fill="#160E25" transform="translate(339,292)"/>
<path d="M0 0 C0.66 0.33 1.32 0.66 2 1 C0.02 3.31 -1.96 5.62 -4 8 C-5.32 7.34 -6.64 6.68 -8 6 C-5.36 4.02 -2.72 2.04 0 0 Z " fill="#271B0C" transform="translate(328,274)"/>
<path d="M0 0 C1.125 3.75 1.125 3.75 0 6 C-1.98 4.68 -3.96 3.36 -6 2 C-5.38125 1.855625 -4.7625 1.71125 -4.125 1.5625 C-1.96741678 1.06847775 -1.96741678 1.06847775 0 0 Z " fill="#AF9AD4" transform="translate(373,227)"/>
<path d="M0 0 C2.475 0.495 2.475 0.495 5 1 C5 1.66 5 2.32 5 3 C5.99 2.67 6.98 2.34 8 2 C8 3.32 8 4.64 8 6 C4.63408134 4.55746343 2.48952921 2.66735273 0 0 Z " fill="#AA96CB" transform="translate(352,217)"/>
<path d="M0 0 C1.33597652 0.80814651 2.668725 1.62163181 4 2.4375 C5.11375 3.11619141 5.11375 3.11619141 6.25 3.80859375 C6.8275 4.20175781 7.405 4.59492188 8 5 C8 5.33 8 5.66 8 6 C6.35 6 4.7 6 3 6 C3 5.34 3 4.68 3 4 C2.34 4 1.68 4 1 4 C0.67 2.68 0.34 1.36 0 0 Z " fill="#170F23" transform="translate(313,190)"/>
<path d="M0 0 C1.953125 0.13020833 3.90625 0.26041667 5.859375 0.390625 C5.859375 0.720625 5.859375 1.050625 5.859375 1.390625 C1.899375 2.380625 -2.060625 3.370625 -6.140625 4.390625 C-2.140625 0.390625 -2.140625 0.390625 0 0 Z " fill="#322743" transform="translate(238.140625,139.609375)"/>
<path d="M0 0 C0.33 0.99 0.66 1.98 1 3 C0.01 4.485 0.01 4.485 -1 6 C-1.66 6 -2.32 6 -3 6 C-3 6.99 -3 7.98 -3 9 C-3.66 9 -4.32 9 -5 9 C-3.7508258 5.54074837 -2.32472205 2.85306797 0 0 Z " fill="#9D8BBC" transform="translate(31,38)"/>
<path d="M0 0 C0.99 0.33 1.98 0.66 3 1 C3.5625 2.9375 3.5625 2.9375 4 5 C4.66 5.66 5.32 6.32 6 7 C5.01 7 4.02 7 3 7 C0.64276511 4.46815512 0 3.52809907 0 0 Z " fill="#A08EBE" transform="translate(27,454)"/>
<path d="M0 0 C0.33 0.99 0.66 1.98 1 3 C-2 5 -2 5 -4.1875 4.625 C-4.785625 4.41875 -5.38375 4.2125 -6 4 C-4.02 2.68 -2.04 1.36 0 0 Z " fill="#AD98D0" transform="translate(268,342)"/>
<path d="M0 0 C0 0.99 0 1.98 0 3 C-3 5.1875 -3 5.1875 -6 7 C-6 6.01 -6 5.02 -6 4 C-3 1.8125 -3 1.8125 0 0 Z " fill="#1D1208" transform="translate(343,264)"/>
<path d="M0 0 C2.64 1.65 5.28 3.3 8 5 C7.01 5.66 6.02 6.32 5 7 C3.29115995 5.37660195 1.62553283 3.70680947 0 2 C0 1.34 0 0.68 0 0 Z " fill="#0E091B" transform="translate(289,173)"/>
</svg>
