<?xml version="1.0" encoding="UTF-8"?>
<svg version="1.1" xmlns="http://www.w3.org/2000/svg" width="500" height="500">
<path d="M0 0 C1.61093649 -0.00577568 3.22186638 -0.01372643 4.83278275 -0.02363622 C9.21673023 -0.0443345 13.60012718 -0.03427283 17.98407555 -0.01870513 C22.72855565 -0.00732512 27.47294546 -0.0248871 32.21740723 -0.03860474 C41.49491139 -0.0607711 50.77221265 -0.05606547 60.04972458 -0.04154153 C67.59359138 -0.03022322 75.13740155 -0.02872958 82.68127441 -0.03416061 C83.75730211 -0.03492678 84.8333298 -0.03569294 85.94196439 -0.03648233 C88.12828542 -0.03808105 90.31460644 -0.03970211 92.50092745 -0.04134528 C112.97450841 -0.05558345 133.44797722 -0.03924041 153.92153978 -0.01234345 C171.46695506 0.00999354 189.0122049 0.00611287 206.55761719 -0.01693726 C226.96080114 -0.04372943 247.36388694 -0.05421033 267.76708603 -0.03887594 C269.94510649 -0.03728329 272.12312697 -0.03571143 274.30114746 -0.03416061 C275.37261497 -0.03338924 276.44408247 -0.03261786 277.54801869 -0.03182311 C285.07781292 -0.02751636 292.60754457 -0.03477051 300.1373291 -0.04655838 C309.32083428 -0.06061991 318.50412592 -0.05670681 327.68760681 -0.03015466 C332.36805464 -0.01706555 337.04814718 -0.01177984 341.72859192 -0.02840042 C346.02200681 -0.04341541 350.31474067 -0.03492388 354.60809469 -0.00851266 C356.15231076 -0.00297619 357.69658565 -0.00565793 359.24076319 -0.0178916 C373.76030806 -0.12400239 386.52456604 3.09010805 398.49121094 11.63491821 C399.38324219 12.27042603 400.27527344 12.90593384 401.19433594 13.56069946 C415.14392421 24.21771732 425.09758718 39.3148217 428.49121094 56.63491821 C428.90991941 61.95096038 428.89743446 67.24801343 428.87216187 72.57571411 C428.87562363 74.17366908 428.88039167 75.77162166 428.8863436 77.3695693 C428.89881196 81.73595452 428.89270227 86.10214183 428.88338494 90.46852756 C428.87657766 95.1870751 428.88708399 99.90558938 428.89532471 104.62413025 C428.90864633 113.85801934 428.9057913 123.09183517 428.89708678 132.32572711 C428.89030447 139.8320511 428.88939589 147.3383546 428.89265823 154.84468079 C428.89311793 155.91407925 428.89357763 156.9834777 428.89405126 158.08528218 C428.89501046 160.25792126 428.8959831 162.43056035 428.89696904 164.60319942 C428.90551833 184.96359009 428.89569602 205.32394019 428.87956794 225.6843242 C428.86616518 243.14460111 428.8684934 260.60481817 428.88232422 278.06509399 C428.89838816 298.35392762 428.9046944 318.64272571 428.89548743 338.93156481 C428.89453181 341.09609508 428.89358869 343.26062536 428.89265823 345.42515564 C428.89219541 346.49007362 428.89173258 347.55499159 428.89125573 348.65217981 C428.88866829 356.14722301 428.89303154 363.64224362 428.90009689 371.13728333 C428.90852112 380.27447007 428.90621232 389.41157952 428.89025466 398.54875743 C428.8823844 403.20835299 428.87925911 407.86781979 428.88920212 412.52741432 C428.89817531 416.79718341 428.89317313 421.06670502 428.87726946 425.33645183 C428.87393274 426.87668293 428.87559062 428.41693516 428.88289683 429.95715255 C428.92074755 438.60318772 428.35163306 446.408854 425.49121094 454.63491821 C425.19102818 455.51872744 424.89084542 456.40253667 424.58156621 457.31312799 C418.24730082 475.28496374 403.36872972 487.84662063 386.90136719 496.31069946 C376.50285756 500.3486087 366.50795216 501.0684777 355.47485352 501.01586914 C353.88087297 501.01933187 352.28689483 501.02410055 350.69292164 501.03005087 C346.34212761 501.04250604 341.9915325 501.03641564 337.64073801 501.02709222 C332.93718566 501.02027946 328.23366652 501.03079396 323.53012085 501.03903198 C314.32744936 501.05234781 305.12485141 501.04950117 295.92217708 501.04079406 C288.44067581 501.03400945 280.95919511 501.03310416 273.47769165 501.03636551 C271.87839332 501.03705506 271.87839332 501.03705506 270.24678594 501.03775854 C268.08059112 501.03871775 265.9143963 501.03969039 263.74820149 501.04067631 C243.45215661 501.04922391 223.15615242 501.03940596 202.86011422 501.02327521 C185.45815473 501.00987261 168.05625528 501.01220088 150.65429688 501.02603149 C130.42917105 501.04209844 110.20408086 501.04839999 89.97894955 501.0391947 C87.82087644 501.03823909 85.66280334 501.03729598 83.50473022 501.03636551 C82.44301206 501.03590268 81.38129389 501.03543986 80.28740245 501.034963 C72.81786447 501.03237646 65.34834916 501.03673687 57.8788147 501.04380417 C48.7716909 501.05223174 39.66464464 501.04991259 30.55752969 501.03396194 C25.91400528 501.02609616 21.27060999 501.02295868 16.62708664 501.03290939 C12.3708747 501.04189196 8.11491079 501.03686516 3.85872114 501.02097674 C2.32455863 501.01764395 0.79037487 501.0192889 -0.74377382 501.0266041 C-20.93480589 501.11544477 -37.46306143 495.18059772 -52.05859375 481.11734009 C-67.00796997 465.83575551 -71.98296964 448.42420375 -71.90319824 427.60751343 C-71.90809576 426.01225776 -71.91428952 424.41700564 -71.92165613 422.82175946 C-71.93796974 418.46729837 -71.93575533 414.11301935 -71.93028116 409.75853848 C-71.92760032 405.05081064 -71.9421625 400.34313018 -71.95437622 395.63542175 C-71.97538815 386.42339643 -71.9799735 377.21143411 -71.97818834 367.99938765 C-71.97687855 360.50790768 -71.98069591 353.01644729 -71.9881134 345.52497101 C-71.9902127 343.36359 -71.9923103 341.202209 -71.99440622 339.04082799 C-71.99544975 337.96490263 -71.99649328 336.88897727 -71.99756843 335.78044811 C-72.01645379 315.45042808 -72.01542586 295.12044417 -72.0085991 274.79041901 C-72.00302518 256.21390392 -72.02384571 237.6375268 -72.05695957 219.06104395 C-72.09073691 199.96336535 -72.10585985 180.86575277 -72.10124254 161.76804376 C-72.09900191 151.05552418 -72.10418151 140.3431321 -72.12913513 129.63063812 C-72.15020054 120.51005325 -72.15368838 111.38966581 -72.13483554 102.26907268 C-72.1257099 97.62091328 -72.12443681 92.97312147 -72.14519119 88.32499123 C-72.16402416 84.0597948 -72.15926147 79.79526386 -72.13664538 75.53009179 C-72.13249046 73.99720046 -72.13655345 72.46425686 -72.15024132 70.93142101 C-72.32159885 50.31806701 -65.02528577 33.63179219 -50.67675781 18.73257446 C-36.08762521 5.18771662 -19.53702096 -0.15478111 0 0 Z " fill="#C0A4EE" transform="translate(71.5087890625,-0.634918212890625)"/>
<path d="M0 0 C2.76079253 1.39265964 5.15943248 3.20605216 7.625 5.0625 C8.35428711 5.59472168 9.08357422 6.12694336 9.83496094 6.67529297 C12.23519502 8.43468785 14.61818537 10.21576481 17 12 C18.70033341 13.26197132 20.40085694 14.52368651 22.1015625 15.78515625 C32.14619729 23.26171751 42.08672195 30.87202282 51.98681641 38.53857422 C62.54822683 46.71219537 62.54822683 46.71219537 73.4375 54.4375 C79.53605422 58.58938355 85.32854811 63.07953574 91.13208008 67.63208008 C98.01562281 73.03026873 104.99580317 78.28833204 112.01025391 83.51464844 C114.06628275 85.04948028 116.11773855 86.5902447 118.16796875 88.1328125 C126.63277459 94.5022518 126.63277459 94.5022518 135.1875 100.75 C142.56274756 106.08029255 149.75643662 111.65360929 156.98828125 117.17578125 C165.76008841 123.87333879 174.61255196 130.456855 183.5 137 C185.92311039 138.78583977 188.34611073 140.57182869 190.76904297 142.35791016 C192.78229766 143.83976079 194.79900061 145.31677876 196.81640625 146.79296875 C197.89864269 147.5908676 198.9806909 148.38902185 200.0625 149.1875 C200.98160156 149.86167969 201.90070313 150.53585938 202.84765625 151.23046875 C205.90200196 153.7415733 206.92783328 155.36252735 207.375 159.3125 C206.8039622 164.92770507 204.2855455 167.93010518 199.99609375 171.5 C198.81694641 172.3432802 197.63024383 173.17606304 196.4375 174 C195.0842225 174.96426451 193.73137827 175.9291373 192.37890625 176.89453125 C191.66492676 177.39936035 190.95094727 177.90418945 190.21533203 178.42431641 C186.40353026 181.13550978 182.63995674 183.91179787 178.875 186.6875 C178.082146 187.27080078 177.28929199 187.85410156 176.47241211 188.45507812 C170.4345991 192.90925181 164.45908098 197.44121522 158.5 202 C147.97319602 210.05269566 137.3176681 217.92072055 126.61767578 225.74121094 C117.13376155 232.67481266 107.74817293 239.70277409 98.5012207 246.94995117 C91.98963383 252.04150762 85.34319194 256.92991153 78.65820312 261.79003906 C70.59616927 267.67275988 62.68491184 273.76038868 54.75 279.8125 C42.03235392 289.50898836 29.28348329 299.13884171 16.28833008 308.46166992 C12.02909417 311.5191702 7.81581988 314.62590064 3.64648438 317.80517578 C0.05634312 320.41047698 -2.59042691 320.58794308 -7 320 C-10.53824399 317.55447292 -12.67729182 314.55586001 -13.55174577 310.33989024 C-13.77240098 307.05848218 -13.79468731 303.82567133 -13.75517273 300.53695679 C-13.76382711 299.28085307 -13.77248149 298.02474935 -13.78139812 296.73058188 C-13.8044571 293.25542287 -13.79022045 289.78127589 -13.76968896 286.30613804 C-13.75403666 282.55419963 -13.77298766 278.80241222 -13.78749084 275.05049133 C-13.81030545 267.70560677 -13.80084729 260.36110298 -13.77998998 253.01622604 C-13.76370214 247.04768123 -13.75950734 241.07924029 -13.76395607 235.11067581 C-13.76458675 234.26103195 -13.76521742 233.4113881 -13.76586721 232.53599746 C-13.76721326 230.80995783 -13.76859284 229.08391822 -13.77000556 227.35787864 C-13.78193951 211.17710805 -13.7578824 194.99654622 -13.72098748 178.81582315 C-13.69008379 164.9295504 -13.68772927 151.04351781 -13.70678711 137.15722656 C-13.72889351 121.03106419 -13.73504955 104.90503644 -13.71446449 88.77886736 C-13.71230154 87.05980915 -13.71015244 85.34075091 -13.70801735 83.62169266 C-13.70695098 82.77587928 -13.70588462 81.9300659 -13.70478594 81.05862182 C-13.69831403 75.0956703 -13.70308483 69.13278802 -13.71204185 63.16984177 C-13.72257153 55.90537941 -13.71509554 48.64119885 -13.68458607 41.3767886 C-13.66944629 37.66973873 -13.66230782 33.96313388 -13.67677689 30.25607109 C-13.69216976 26.23999715 -13.66890887 22.2250865 -13.64164734 18.20907593 C-13.65211883 17.03389385 -13.66259032 15.85871176 -13.67337912 14.64791811 C-13.56200819 5.88010606 -13.56200819 5.88010606 -10.58489704 2.79943275 C-6.73941845 0.12246728 -4.72466454 -0.5341404 0 0 Z " fill="#EDCE85" transform="translate(173,90)"/>
<path d="M0 0 C1.61093649 -0.00577568 3.22186638 -0.01372643 4.83278275 -0.02363622 C9.21673023 -0.0443345 13.60012718 -0.03427283 17.98407555 -0.01870513 C22.72855565 -0.00732512 27.47294546 -0.0248871 32.21740723 -0.03860474 C41.49491139 -0.0607711 50.77221265 -0.05606547 60.04972458 -0.04154153 C67.59359138 -0.03022322 75.13740155 -0.02872958 82.68127441 -0.03416061 C83.75730211 -0.03492678 84.8333298 -0.03569294 85.94196439 -0.03648233 C88.12828542 -0.03808105 90.31460644 -0.03970211 92.50092745 -0.04134528 C112.97450841 -0.05558345 133.44797722 -0.03924041 153.92153978 -0.01234345 C171.46695506 0.00999354 189.0122049 0.00611287 206.55761719 -0.01693726 C226.96080114 -0.04372943 247.36388694 -0.05421033 267.76708603 -0.03887594 C269.94510649 -0.03728329 272.12312697 -0.03571143 274.30114746 -0.03416061 C275.37261497 -0.03338924 276.44408247 -0.03261786 277.54801869 -0.03182311 C285.07781292 -0.02751636 292.60754457 -0.03477051 300.1373291 -0.04655838 C309.32083428 -0.06061991 318.50412592 -0.05670681 327.68760681 -0.03015466 C332.36805464 -0.01706555 337.04814718 -0.01177984 341.72859192 -0.02840042 C346.02200681 -0.04341541 350.31474067 -0.03492388 354.60809469 -0.00851266 C356.15231076 -0.00297619 357.69658565 -0.00565793 359.24076319 -0.0178916 C373.76030806 -0.12400239 386.52456604 3.09010805 398.49121094 11.63491821 C399.38324219 12.27042603 400.27527344 12.90593384 401.19433594 13.56069946 C415.14392421 24.21771732 425.09758718 39.3148217 428.49121094 56.63491821 C428.90991941 61.95096038 428.89743446 67.24801343 428.87216187 72.57571411 C428.87562363 74.17366908 428.88039167 75.77162166 428.8863436 77.3695693 C428.89881196 81.73595452 428.89270227 86.10214183 428.88338494 90.46852756 C428.87657766 95.1870751 428.88708399 99.90558938 428.89532471 104.62413025 C428.90864633 113.85801934 428.9057913 123.09183517 428.89708678 132.32572711 C428.89030447 139.8320511 428.88939589 147.3383546 428.89265823 154.84468079 C428.89311793 155.91407925 428.89357763 156.9834777 428.89405126 158.08528218 C428.89501046 160.25792126 428.8959831 162.43056035 428.89696904 164.60319942 C428.90551833 184.96359009 428.89569602 205.32394019 428.87956794 225.6843242 C428.86616518 243.14460111 428.8684934 260.60481817 428.88232422 278.06509399 C428.89838816 298.35392762 428.9046944 318.64272571 428.89548743 338.93156481 C428.89453181 341.09609508 428.89358869 343.26062536 428.89265823 345.42515564 C428.89219541 346.49007362 428.89173258 347.55499159 428.89125573 348.65217981 C428.88866829 356.14722301 428.89303154 363.64224362 428.90009689 371.13728333 C428.90852112 380.27447007 428.90621232 389.41157952 428.89025466 398.54875743 C428.8823844 403.20835299 428.87925911 407.86781979 428.88920212 412.52741432 C428.89817531 416.79718341 428.89317313 421.06670502 428.87726946 425.33645183 C428.87393274 426.87668293 428.87559062 428.41693516 428.88289683 429.95715255 C428.92074755 438.60318772 428.35163306 446.408854 425.49121094 454.63491821 C425.19102818 455.51872744 424.89084542 456.40253667 424.58156621 457.31312799 C418.24730082 475.28496374 403.36872972 487.84662063 386.90136719 496.31069946 C376.50285756 500.3486087 366.50795216 501.0684777 355.47485352 501.01586914 C353.88087297 501.01933187 352.28689483 501.02410055 350.69292164 501.03005087 C346.34212761 501.04250604 341.9915325 501.03641564 337.64073801 501.02709222 C332.93718566 501.02027946 328.23366652 501.03079396 323.53012085 501.03903198 C314.32744936 501.05234781 305.12485141 501.04950117 295.92217708 501.04079406 C288.44067581 501.03400945 280.95919511 501.03310416 273.47769165 501.03636551 C271.87839332 501.03705506 271.87839332 501.03705506 270.24678594 501.03775854 C268.08059112 501.03871775 265.9143963 501.03969039 263.74820149 501.04067631 C243.45215661 501.04922391 223.15615242 501.03940596 202.86011422 501.02327521 C185.45815473 501.00987261 168.05625528 501.01220088 150.65429688 501.02603149 C130.42917105 501.04209844 110.20408086 501.04839999 89.97894955 501.0391947 C87.82087644 501.03823909 85.66280334 501.03729598 83.50473022 501.03636551 C82.44301206 501.03590268 81.38129389 501.03543986 80.28740245 501.034963 C72.81786447 501.03237646 65.34834916 501.03673687 57.8788147 501.04380417 C48.7716909 501.05223174 39.66464464 501.04991259 30.55752969 501.03396194 C25.91400528 501.02609616 21.27060999 501.02295868 16.62708664 501.03290939 C12.3708747 501.04189196 8.11491079 501.03686516 3.85872114 501.02097674 C2.32455863 501.01764395 0.79037487 501.0192889 -0.74377382 501.0266041 C-20.93480589 501.11544477 -37.46306143 495.18059772 -52.05859375 481.11734009 C-67.00796997 465.83575551 -71.98296964 448.42420375 -71.90319824 427.60751343 C-71.90809576 426.01225776 -71.91428952 424.41700564 -71.92165613 422.82175946 C-71.93796974 418.46729837 -71.93575533 414.11301935 -71.93028116 409.75853848 C-71.92760032 405.05081064 -71.9421625 400.34313018 -71.95437622 395.63542175 C-71.97538815 386.42339643 -71.9799735 377.21143411 -71.97818834 367.99938765 C-71.97687855 360.50790768 -71.98069591 353.01644729 -71.9881134 345.52497101 C-71.9902127 343.36359 -71.9923103 341.202209 -71.99440622 339.04082799 C-71.99544975 337.96490263 -71.99649328 336.88897727 -71.99756843 335.78044811 C-72.01645379 315.45042808 -72.01542586 295.12044417 -72.0085991 274.79041901 C-72.00302518 256.21390392 -72.02384571 237.6375268 -72.05695957 219.06104395 C-72.09073691 199.96336535 -72.10585985 180.86575277 -72.10124254 161.76804376 C-72.09900191 151.05552418 -72.10418151 140.3431321 -72.12913513 129.63063812 C-72.15020054 120.51005325 -72.15368838 111.38966581 -72.13483554 102.26907268 C-72.1257099 97.62091328 -72.12443681 92.97312147 -72.14519119 88.32499123 C-72.16402416 84.0597948 -72.15926147 79.79526386 -72.13664538 75.53009179 C-72.13249046 73.99720046 -72.13655345 72.46425686 -72.15024132 70.93142101 C-72.32159885 50.31806701 -65.02528577 33.63179219 -50.67675781 18.73257446 C-36.08762521 5.18771662 -19.53702096 -0.15478111 0 0 Z M-35.50878906 33.63491821 C-36.10949219 34.10929321 -36.71019531 34.58366821 -37.32910156 35.07241821 C-44.30312372 41.07695747 -48.64309498 51.03783596 -51.50878906 59.63491821 C-51.60496412 61.71004252 -51.63974809 63.78817886 -51.64301014 65.86552811 C-51.64746798 67.1789743 -51.65192583 68.49242049 -51.65651876 69.84566808 C-51.65642946 71.31214095 -51.65623959 72.77861382 -51.65596008 74.24508667 C-51.65925857 75.79616092 -51.66298411 77.34723431 -51.66710156 78.89830661 C-51.67713216 83.17236555 -51.68084009 87.44641044 -51.68349087 91.72047949 C-51.68739101 96.32607973 -51.69696982 100.93166883 -51.70570374 105.53726196 C-51.72548058 116.66855091 -51.73553775 127.79984079 -51.74443153 138.93114293 C-51.74881408 144.17418612 -51.75418112 149.4172283 -51.75942039 154.66027069 C-51.77643699 172.09330155 -51.79092937 189.52633177 -51.79816914 206.95936966 C-51.80007902 211.48500825 -51.80199935 216.01064683 -51.80395508 220.5362854 C-51.80443882 221.66110662 -51.80492256 222.78592785 -51.80542096 223.94483456 C-51.81371445 242.15074691 -51.83903794 260.35659341 -51.87153576 278.56247702 C-51.90463625 297.25870092 -51.92262076 315.9548914 -51.92581338 334.65114474 C-51.92797614 345.14633943 -51.93669018 355.64143821 -51.96227455 366.13660431 C-51.98402272 375.07880753 -51.99201189 384.02089156 -51.98230777 392.96311823 C-51.97777444 397.52194041 -51.97959254 402.0805169 -51.99906921 406.63930511 C-52.01678405 410.82206561 -52.01563637 415.00440269 -52.00017192 419.18716821 C-51.99780834 420.69137835 -52.00205371 422.19561845 -52.01400057 423.699783 C-52.12150296 438.14261159 -50.22132716 451.36837402 -40.50878906 462.63491821 C-39.88488281 463.40319946 -39.26097656 464.17148071 -38.61816406 464.96304321 C-31.76456147 472.65372704 -22.20896156 477.40152738 -12.50878906 480.63491821 C-10.40398265 480.72776371 -8.29628044 480.75865795 -6.18942738 480.75796604 C-5.54269547 480.75911989 -4.89596356 480.76027373 -4.22963372 480.76146254 C-2.04766102 480.76412384 0.1342389 480.75961103 2.31620789 480.75517273 C3.89034617 480.75560853 5.46448438 480.7564836 7.0386222 480.7577619 C11.37585299 480.76000511 15.71305923 480.75598792 20.05028689 480.75098383 C24.72307945 480.74667705 29.39587056 480.74812592 34.06866455 480.74888611 C42.16846229 480.7494112 50.268252 480.74626596 58.36804771 480.74064827 C70.07908342 480.73253125 81.79011523 480.72991784 93.50115345 480.72866028 C112.50020151 480.72647008 131.49924528 480.71981085 150.49829102 480.71035767 C168.95727517 480.70118273 187.41625817 480.69410229 205.87524414 480.68984985 C207.01250129 480.68958713 208.14975843 480.68932441 209.32147791 480.68905372 C215.02659715 480.68774871 220.7317164 480.686485 226.43683565 480.68524182 C273.78829704 480.6748702 321.13975378 480.65725275 368.49121094 480.63491821 C368.49121094 479.97491821 368.49121094 479.31491821 368.49121094 478.63491821 C369.70808594 478.63491821 370.92496094 478.63491821 372.17871094 478.63491821 C381.2576967 477.61818637 390.51345211 470.72576842 396.64355469 464.16616821 C406.13714685 451.16014766 408.79387842 438.21846852 408.7653656 422.40328979 C408.76982166 420.84576052 408.77513692 419.28823351 408.78123432 417.73070979 C408.79538031 413.46213947 408.79707826 409.19364209 408.79663742 404.92505169 C408.7982886 400.31686086 408.81136065 395.70869981 408.8228302 391.1005249 C408.84565473 381.03026654 408.85359787 370.96002929 408.85865664 360.88974857 C408.86191621 354.59928385 408.86844021 348.30882522 408.87565804 342.01836395 C408.89521957 324.59370242 408.91162675 307.16904654 408.91453457 289.74437332 C408.91481592 288.07268731 408.91481592 288.07268731 408.91510296 286.36722986 C408.91546921 284.1080753 408.91583291 281.84892074 408.91619407 279.58976617 C408.91637688 278.46835775 408.9165597 277.34694933 408.91674805 276.19155884 C408.9169286 275.06877819 408.91710915 273.94599755 408.91729517 272.78919324 C408.92083714 254.59448353 408.947863 236.39989215 408.98524594 218.20522347 C409.02334012 199.51450081 409.04269212 180.82383686 409.04299408 162.13307452 C409.04357835 151.64306236 409.05205097 141.15319141 409.08099174 130.66321564 C409.10552029 121.73163707 409.11277842 112.80025124 409.09774422 103.86864808 C409.09058175 99.31416549 409.09140421 94.76006341 409.11415482 90.20562363 C409.13481019 86.03053472 409.1320838 81.85611728 409.11127997 77.68103513 C409.1077976 76.176355 409.11264172 74.67162578 409.12698441 73.16700998 C409.26428127 57.7625168 404.26033478 45.54979175 393.61621094 34.38491821 C387.57054537 28.59259482 379.63559088 22.91552076 371.05371094 22.44741821 C370.20808594 22.50929321 369.36246094 22.57116821 368.49121094 22.63491821 C368.49121094 21.97491821 368.49121094 21.31491821 368.49121094 20.63491821 C320.1924129 20.49751709 271.8936356 20.39182571 223.59468057 20.32852624 C217.88961746 20.3210222 212.18455473 20.31325625 206.47949219 20.30532837 C205.34374031 20.30375451 204.20798842 20.30218064 203.03781982 20.30055909 C184.65964983 20.27446736 166.28159271 20.22716876 147.90348963 20.17200144 C129.03900206 20.11584732 110.17457351 20.08255599 91.31000578 20.07038724 C79.67409093 20.06216385 68.03849513 20.03621241 56.4026785 19.98741941 C48.41826365 19.95564813 40.43401321 19.94613021 32.44953977 19.95390995 C27.84618096 19.95774438 23.24337881 19.95196111 18.64011955 19.91968536 C14.41766149 19.89029721 10.1961297 19.88913345 5.97362728 19.90952484 C4.45385398 19.91204168 2.93402077 19.9045902 1.41436379 19.88561912 C-13.1948349 19.71398775 -24.53834586 23.76592513 -35.50878906 33.63491821 Z " fill="#040405" transform="translate(71.5087890625,-0.634918212890625)"/>
<path d="M0 0 C2.76079253 1.39265964 5.15943248 3.20605216 7.625 5.0625 C8.35428711 5.59472168 9.08357422 6.12694336 9.83496094 6.67529297 C12.23519502 8.43468785 14.61818537 10.21576481 17 12 C18.70033341 13.26197132 20.40085694 14.52368651 22.1015625 15.78515625 C32.14619729 23.26171751 42.08672195 30.87202282 51.98681641 38.53857422 C62.54822683 46.71219537 62.54822683 46.71219537 73.4375 54.4375 C79.53605422 58.58938355 85.32854811 63.07953574 91.13208008 67.63208008 C98.01562281 73.03026873 104.99580317 78.28833204 112.01025391 83.51464844 C114.06628275 85.04948028 116.11773855 86.5902447 118.16796875 88.1328125 C126.63277459 94.5022518 126.63277459 94.5022518 135.1875 100.75 C142.56274756 106.08029255 149.75643662 111.65360929 156.98828125 117.17578125 C165.76008841 123.87333879 174.61255196 130.456855 183.5 137 C185.92311039 138.78583977 188.34611073 140.57182869 190.76904297 142.35791016 C192.78229766 143.83976079 194.79900061 145.31677876 196.81640625 146.79296875 C197.89864269 147.5908676 198.9806909 148.38902185 200.0625 149.1875 C200.98160156 149.86167969 201.90070313 150.53585938 202.84765625 151.23046875 C205.90200196 153.7415733 206.92783328 155.36252735 207.375 159.3125 C206.8039622 164.92770507 204.2855455 167.93010518 199.99609375 171.5 C198.81694641 172.3432802 197.63024383 173.17606304 196.4375 174 C195.0842225 174.96426451 193.73137827 175.9291373 192.37890625 176.89453125 C191.66492676 177.39936035 190.95094727 177.90418945 190.21533203 178.42431641 C186.40353026 181.13550978 182.63995674 183.91179787 178.875 186.6875 C178.082146 187.27080078 177.28929199 187.85410156 176.47241211 188.45507812 C170.4345991 192.90925181 164.45908098 197.44121522 158.5 202 C147.97319602 210.05269566 137.3176681 217.92072055 126.61767578 225.74121094 C117.13376155 232.67481266 107.74817293 239.70277409 98.5012207 246.94995117 C91.98963383 252.04150762 85.34319194 256.92991153 78.65820312 261.79003906 C70.59616927 267.67275988 62.68491184 273.76038868 54.75 279.8125 C42.03235392 289.50898836 29.28348329 299.13884171 16.28833008 308.46166992 C12.02909417 311.5191702 7.81581988 314.62590064 3.64648438 317.80517578 C0.05634312 320.41047698 -2.59042691 320.58794308 -7 320 C-10.53824399 317.55447292 -12.67729182 314.55586001 -13.55174577 310.33989024 C-13.77240098 307.05848218 -13.79468731 303.82567133 -13.75517273 300.53695679 C-13.76382711 299.28085307 -13.77248149 298.02474935 -13.78139812 296.73058188 C-13.8044571 293.25542287 -13.79022045 289.78127589 -13.76968896 286.30613804 C-13.75403666 282.55419963 -13.77298766 278.80241222 -13.78749084 275.05049133 C-13.81030545 267.70560677 -13.80084729 260.36110298 -13.77998998 253.01622604 C-13.76370214 247.04768123 -13.75950734 241.07924029 -13.76395607 235.11067581 C-13.76458675 234.26103195 -13.76521742 233.4113881 -13.76586721 232.53599746 C-13.76721326 230.80995783 -13.76859284 229.08391822 -13.77000556 227.35787864 C-13.78193951 211.17710805 -13.7578824 194.99654622 -13.72098748 178.81582315 C-13.69008379 164.9295504 -13.68772927 151.04351781 -13.70678711 137.15722656 C-13.72889351 121.03106419 -13.73504955 104.90503644 -13.71446449 88.77886736 C-13.71230154 87.05980915 -13.71015244 85.34075091 -13.70801735 83.62169266 C-13.70695098 82.77587928 -13.70588462 81.9300659 -13.70478594 81.05862182 C-13.69831403 75.0956703 -13.70308483 69.13278802 -13.71204185 63.16984177 C-13.72257153 55.90537941 -13.71509554 48.64119885 -13.68458607 41.3767886 C-13.66944629 37.66973873 -13.66230782 33.96313388 -13.67677689 30.25607109 C-13.69216976 26.23999715 -13.66890887 22.2250865 -13.64164734 18.20907593 C-13.65211883 17.03389385 -13.66259032 15.85871176 -13.67337912 14.64791811 C-13.56200819 5.88010606 -13.56200819 5.88010606 -10.58489704 2.79943275 C-6.73941845 0.12246728 -4.72466454 -0.5341404 0 0 Z M7 30 C7 115.47 7 200.94 7 289 C11.58220625 287.19895951 11.58220625 287.19895951 15.27734375 284.53125 C15.86563965 284.04793213 16.45393555 283.56461426 17.06005859 283.06665039 C17.98939209 282.29115845 17.98939209 282.29115845 18.9375 281.5 C23.80862921 277.51664452 28.72070761 273.67259143 33.875 270.0625 C39.07619177 266.41135178 44.15436054 262.62957889 49.1875 258.75 C55.21307741 254.1055554 61.29679056 249.55356022 67.4375 245.0625 C73.81443328 240.39588026 80.09606549 235.62827566 86.3125 230.75 C91.93576043 226.33861794 97.61831946 222.07052192 103.46655273 217.96337891 C111.64746654 212.18218431 119.53611365 206.00269788 127.49023438 199.91601562 C136.7758559 192.82714814 146.15896091 185.86879561 155.5625 178.9375 C156.35454834 178.35307129 157.14659668 177.76864258 157.96264648 177.16650391 C161.80593206 174.33494221 165.65936049 171.51977865 169.5390625 168.73828125 C170.24087646 168.23240479 170.94269043 167.72652832 171.66577148 167.20532227 C172.98422131 166.25624855 174.30649348 165.31245573 175.63305664 164.37475586 C177.12489693 163.29829641 178.56849001 162.15547892 180 161 C180 160.34 180 159.68 180 159 C177.66264281 157.08154579 175.31537546 155.27940578 172.875 153.5 C171.78227783 152.69151611 171.78227783 152.69151611 170.66748047 151.86669922 C165.6335133 148.15498305 160.53756891 144.53462336 155.42871094 140.92724609 C149.75932889 136.89063336 144.29230416 132.6043269 138.81298828 128.31518555 C127.5697284 119.51896009 116.10662999 111.05102351 104.51318359 102.72338867 C98.91413194 98.69015292 93.42597816 94.53711207 87.9765625 90.3046875 C85.17132222 88.13265106 82.3430155 85.99725101 79.5 83.875 C74.72034759 80.30458055 69.97271828 76.69413365 65.23193359 73.07226562 C58.17550178 67.6816104 51.12416346 62.29530373 43.91796875 57.10546875 C33.15676216 49.34068916 22.44902296 41.50993218 12.1003418 33.19995117 C9.8103392 30.97810042 9.8103392 30.97810042 7 30 Z " fill="#040203" transform="translate(173,90)"/>
<path d="M0 0 C4.16138263 -0.08159574 7.9472484 0.01751476 12 1 C12 1.66 12 2.32 12 3 C136.41 3 260.82 3 389 3 C389 3.33 389 3.66 389 4 C340.59903728 4.06865058 292.19807948 4.1215209 243.79707766 4.15319599 C238.08428216 4.15694816 232.37148676 4.16083112 226.65869141 4.16479492 C225.52136566 4.16558185 224.38403992 4.16636878 223.21224976 4.16717956 C204.79127224 4.18023728 186.37032278 4.20389315 167.94936192 4.23145839 C149.05099766 4.25950239 130.1526481 4.27617413 111.25426388 4.28226548 C99.59079761 4.28638401 87.92741063 4.2993971 76.26396877 4.3237494 C68.26841053 4.33959416 60.27289336 4.34440321 52.27732056 4.34050413 C47.66271787 4.33858063 43.04825387 4.34155151 38.43367577 4.35761642 C34.2080511 4.37221988 29.98265833 4.37294946 25.75702298 4.36269668 C24.22929523 4.36142958 22.70155299 4.36523138 21.17385375 4.37464955 C13.57968789 4.41874034 6.95326025 4.38392299 0 1 C0 0.67 0 0.34 0 0 Z " fill="#9683B7" transform="translate(51,476)"/>
<path d="M0 0 C0.33 0 0.66 0 1 0 C1.00021737 0.64558811 1.00043474 1.29117623 1.00065869 1.95632762 C1.01416853 40.20175823 1.05362013 78.44708313 1.12685562 116.69244806 C1.13562259 121.28251386 1.14417236 125.87258003 1.15258789 130.46264648 C1.15426695 131.37646305 1.15594602 132.29027962 1.15767596 133.2317876 C1.18436067 148.03676107 1.19344209 162.84169582 1.19604143 177.64669087 C1.19909867 192.83300591 1.22101876 208.01920883 1.26052457 223.20547324 C1.28431377 232.57958889 1.29331198 241.95348087 1.28351311 251.32762257 C1.27820575 257.75198411 1.29118667 264.17614486 1.3186629 270.60044923 C1.33398248 274.30947697 1.34112912 278.01805546 1.32659721 281.72709656 C1.3110627 285.74572702 1.3339835 289.76321326 1.36076355 293.78178406 C1.35009029 294.95785003 1.33941703 296.133916 1.32842034 297.34562033 C1.22397586 302.82869134 1.22397586 302.82869134 3.15565169 307.79011881 C4.65138335 309.30305927 4.65138335 309.30305927 7 311 C7 311.66 7 312.32 7 313 C8.98 313 10.96 313 13 313 C13 313.33 13 313.66 13 314 C9.7430776 314.45596914 7.15641893 314.78779703 4.33444822 312.86536211 C-0.99156734 307.26071605 -0.83249191 301.95807417 -0.7215271 294.50331116 C-0.72665365 293.24367961 -0.7317802 291.98404806 -0.7370621 290.68624586 C-0.75044371 287.20136039 -0.72652937 283.71758667 -0.69639373 280.2328428 C-0.67043897 276.47083237 -0.67925427 272.70888266 -0.68380737 268.94680786 C-0.68695075 262.43263503 -0.66815499 255.91882329 -0.63438034 249.40474129 C-0.58558026 239.98658216 -0.56998783 230.56859732 -0.56245239 221.15032547 C-0.5493265 205.8692424 -0.5094129 190.58835169 -0.45263672 175.30737305 C-0.39754733 160.46493491 -0.35508426 145.62254905 -0.32958984 130.7800293 C-0.3280135 129.86486072 -0.32643716 128.94969214 -0.32481305 128.00679118 C-0.31698273 123.41557608 -0.3094005 118.8243606 -0.30194163 114.23314488 C-0.23975962 76.15529524 -0.13409674 38.07766033 0 0 Z " fill="#150D20" transform="translate(160,96)"/>
<path d="M0 0 C0.66 0.33 1.32 0.66 2 1 C-2.60136502 6.53601728 -7.46398272 11.39863498 -13 16 C-13 11.93645091 -11.47015238 10.94829419 -8.75 8 C-7.96109375 7.13375 -7.1721875 6.2675 -6.359375 5.375 C-4.3351828 3.33740256 -2.34982916 1.63841299 0 0 Z " fill="#707070" transform="translate(27,13)"/>
<path d="M0 0 C0.66 0.33 1.32 0.66 2 1 C-0.625 6.75 -0.625 6.75 -4 9 C-4.99 9 -5.98 9 -7 9 C-7.66 9.66 -8.32 10.32 -9 11 C-10.32 10.67 -11.64 10.34 -13 10 C-8.71 6.7 -4.42 3.4 0 0 Z " fill="#B39DDB" transform="translate(199,390)"/>
<path d="M0 0 C0 0.99 0 1.98 0 3 C-5.34883721 8 -5.34883721 8 -8 8 C-8.20625 8.598125 -8.4125 9.19625 -8.625 9.8125 C-10.53549209 12.85191923 -12.71404225 13.69930839 -16 15 C-16.66 14.67 -17.32 14.34 -18 14 C-12.06 9.38 -6.12 4.76 0 0 Z " fill="#AF9CD1" transform="translate(339,285)"/>
<path d="M0 0 C-1.93108878 1.50894379 -3.86906006 3.00711534 -5.8125 4.5 C-6.35970703 4.92925781 -6.90691406 5.35851562 -7.47070312 5.80078125 C-11.66015625 9 -11.66015625 9 -15 9 C-14.67 8.34 -14.34 7.68 -14 7 C-13.34 7 -12.68 7 -12 7 C-11.7215625 6.13375 -11.7215625 6.13375 -11.4375 5.25 C-8.86173339 1.21836531 -4.75784978 -1.58594993 0 0 Z " fill="#130D1C" transform="translate(306,311)"/>
<path d="M0 0 C4.43458973 1.3937282 6.87378374 3.60582235 10 7 C9.34 7.66 8.68 8.32 8 9 C7.67 7.68 7.34 6.36 7 5 C6.21625 5.20625 5.4325 5.4125 4.625 5.625 C3.75875 5.74875 2.8925 5.8725 2 6 C1.34 5.34 0.68 4.68 0 4 C0 2.68 0 1.36 0 0 Z " fill="#E0C689" transform="translate(181,122)"/>
<path d="M0 0 C0.66 0.33 1.32 0.66 2 1 C0.66666667 2.33333333 -0.66666667 3.66666667 -2 5 C-2.825 5.928125 -3.65 6.85625 -4.5 7.8125 C-5.325 8.534375 -6.15 9.25625 -7 10 C-8.32 9.67 -9.64 9.34 -11 9 C-7.37 6.03 -3.74 3.06 0 0 Z " fill="#A794CA" transform="translate(288,323)"/>
<path d="M0 0 C0.66 0.33 1.32 0.66 2 1 C1.01 2.175625 1.01 2.175625 0 3.375 C-2.20201441 5.71512812 -2.20201441 5.71512812 -2 8 C-3.8125 8.625 -3.8125 8.625 -6 9 C-6.99 8.34 -7.98 7.68 -9 7 C-6.03 4.69 -3.06 2.38 0 0 Z " fill="#B09BD6" transform="translate(223,372)"/>
<path d="M0 0 C0.66 0.66 1.32 1.32 2 2 C-1.3 4.64 -4.6 7.28 -8 10 C-8.66 9.67 -9.32 9.34 -10 9 C-9.67 8.01 -9.34 7.02 -9 6 C-8.34 6 -7.68 6 -7 6 C-6.67 5.34 -6.34 4.68 -6 4 C-4.02111039 3.27306096 -2.02045442 2.60183749 0 2 C0 1.34 0 0.68 0 0 Z " fill="#120B1A" transform="translate(241,356)"/>
<path d="M0 0 C2.23915424 0.73602403 2.23915424 0.73602403 5.0625 -0.5 C3.92530581 2.91158256 3.01907056 3.61854601 0.0625 5.5 C-0.5975 5.5 -1.2575 5.5 -1.9375 5.5 C-1.9375 4.84 -1.9375 4.18 -1.9375 3.5 C-2.9275 3.5 -3.9175 3.5 -4.9375 3.5 C-4.6075 2.51 -4.2775 1.52 -3.9375 0.5 C-1.9375 -0.5 -1.9375 -0.5 0 0 Z " fill="#E1C588" transform="translate(324.9375,266.5)"/>
<path d="M0 0 C4.01076447 1.02840115 6.26388836 2.95987596 9 6 C8.01 6.33 7.02 6.66 6 7 C6 6.34 6 5.68 6 5 C3.67145537 3.80161791 3.67145537 3.80161791 1 3 C0.01 3.66 -0.98 4.32 -2 5 C-2.33 4.01 -2.66 3.02 -3 2 C-2.01 1.34 -1.02 0.68 0 0 Z " fill="#E5C989" transform="translate(245,170)"/>
<path d="M0 0 C0.33 0.99 0.66 1.98 1 3 C1.99 3.33 2.98 3.66 4 4 C4.33 4.99 4.66 5.98 5 7 C1.00095031 7 -0.80200422 5.27413033 -4 3 C-2.68 2.01 -1.36 1.02 0 0 Z " fill="#B19BD6" transform="translate(307,185)"/>
<path d="M0 0 C0.66 0.33 1.32 0.66 2 1 C-1.38303342 5.71208226 -1.38303342 5.71208226 -3.875 6.875 C-6.69318117 7.04077536 -9.24346217 6.56383728 -12 6 C-12 5.67 -12 5.34 -12 5 C-10.7625 4.731875 -9.525 4.46375 -8.25 4.1875 C-4.89716221 3.36118005 -2.58904064 2.37328726 0 0 Z " fill="#B09CD1" transform="translate(179,405)"/>
<path d="M0 0 C0.33 0.99 0.66 1.98 1 3 C-0.65 4.32 -2.3 5.64 -4 7 C-4.99 6.34 -5.98 5.68 -7 5 C-4.69 3.35 -2.38 1.7 0 0 Z " fill="#B19CD9" transform="translate(349,278)"/>
<path d="M0 0 C1.32 0.33 2.64 0.66 4 1 C-0.455 3.97 -0.455 3.97 -5 7 C-5 6.01 -5 5.02 -5 4 C-2.75 1.75 -2.75 1.75 0 0 Z " fill="#1F162D" transform="translate(369,260)"/>
<path d="M0 0 C2.88437779 1.29299694 4.87219421 2.65941363 7 5 C5.35 5.33 3.7 5.66 2 6 C0 2.25 0 2.25 0 0 Z " fill="#D3B680" transform="translate(338,239)"/>
<path d="M0 0 C2.31 0 4.62 0 7 0 C7.33 1.98 7.66 3.96 8 6 C6.66402348 5.19185349 5.331275 4.37836819 4 3.5625 C3.2575 3.11003906 2.515 2.65757813 1.75 2.19140625 C1.1725 1.79824219 0.595 1.40507813 0 1 C0 0.67 0 0.34 0 0 Z " fill="#A492C2" transform="translate(173,90)"/>
<path d="M0 0 C0 0.66 0 1.32 0 2 C-2.31 3.32 -4.62 4.64 -7 6 C-7 5.34 -7 4.68 -7 4 C-6.34 4 -5.68 4 -5 4 C-5.33 3.01 -5.66 2.02 -6 1 C-4 0 -4 0 0 0 Z " fill="#D9C489" transform="translate(193,369)"/>
<path d="M0 0 C0.66 0.33 1.32 0.66 2 1 C0.35 2.98 -1.3 4.96 -3 7 C-3.99 6.34 -4.98 5.68 -6 5 C-4.02 3.35 -2.04 1.7 0 0 Z " fill="#A896CC" transform="translate(296,317)"/>
<path d="M0 0 C-0.99766109 2.49415272 -1.68616685 3.78740335 -3.9375 5.3125 C-6 6 -6 6 -9 5 C-7.87926138 4.16094435 -6.75325453 3.32892169 -5.625 2.5 C-4.99851562 2.0359375 -4.37203125 1.571875 -3.7265625 1.09375 C-2 0 -2 0 0 0 Z " fill="#B8A4DC" transform="translate(379,257)"/>
<path d="M0 0 C2.46800047 1.15173355 4.04783565 2.04783565 6 4 C3.69 4.33 1.38 4.66 -1 5 C-0.67 3.35 -0.34 1.7 0 0 Z " fill="#DBC284" transform="translate(211,144)"/>
<path d="M0 0 C2.31 0.33 4.62 0.66 7 1 C7 2.65 7 4.3 7 6 C1.125 2.25 1.125 2.25 0 0 Z " fill="#9D8BBC" transform="translate(238,138)"/>
<path d="M0 0 C0 3 0 3 -1.25 4.75 C-1.8275 5.1625 -2.405 5.575 -3 6 C-4.32 5.67 -5.64 5.34 -7 5 C-4.69 3.35 -2.38 1.7 0 0 Z " fill="#AC98CF" transform="translate(193,395)"/>
<path d="M0 0 C0 3 0 3 -1.25 4.75 C-1.8275 5.1625 -2.405 5.575 -3 6 C-4.32 5.67 -5.64 5.34 -7 5 C-4.69 3.35 -2.38 1.7 0 0 Z " fill="#B19DD1" transform="translate(369,263)"/>
<path d="M0 0 C0.33 0.99 0.66 1.98 1 3 C0.01 4.485 0.01 4.485 -1 6 C-1.66 6 -2.32 6 -3 6 C-3 6.99 -3 7.98 -3 9 C-3.66 9 -4.32 9 -5 9 C-3.7508258 5.54074837 -2.32472205 2.85306797 0 0 Z " fill="#9D8BBC" transform="translate(31,38)"/>
<path d="M0 0 C0.99 0.33 1.98 0.66 3 1 C3.5625 2.9375 3.5625 2.9375 4 5 C4.66 5.66 5.32 6.32 6 7 C5.01 7 4.02 7 3 7 C0.64276511 4.46815512 0 3.52809907 0 0 Z " fill="#A08EBE" transform="translate(27,454)"/>
<path d="M0 0 C0 0.99 0 1.98 0 3 C-1.53125 4.38671875 -1.53125 4.38671875 -3.5 5.6875 C-4.47453125 6.34298828 -4.47453125 6.34298828 -5.46875 7.01171875 C-5.9740625 7.33785156 -6.479375 7.66398437 -7 8 C-7 7.01 -7 6.02 -7 5 C-5.46875 3.61328125 -5.46875 3.61328125 -3.5 2.3125 C-2.8503125 1.87550781 -2.200625 1.43851562 -1.53125 0.98828125 C-1.0259375 0.66214844 -0.520625 0.33601563 0 0 Z " fill="#271C0D" transform="translate(226,345)"/>
<path d="M0 0 C0 0.66 0 1.32 0 2 C-2 3.625 -2 3.625 -4 5 C-5.32 4.34 -6.64 3.68 -8 3 C-2.25 0 -2.25 0 0 0 Z " fill="#DCC286" transform="translate(241,333)"/>
<path d="M0 0 C1.98 1.65 3.96 3.3 6 5 C5.34 5.66 4.68 6.32 4 7 C2 5.1875 2 5.1875 0 3 C0 2.01 0 1.02 0 0 Z " fill="#B49DDB" transform="translate(326,201)"/>
<path d="M0 0 C2.3125 0.1875 2.3125 0.1875 5 1 C6.8125 3.5625 6.8125 3.5625 8 6 C4.63408134 4.55746343 2.48952921 2.66735273 0 0 Z " fill="#271B0A" transform="translate(202,136)"/>
</svg>
