<?xml version="1.0" encoding="UTF-8"?>
<svg version="1.1" xmlns="http://www.w3.org/2000/svg" width="500" height="500">
<path d="M0 0 C1.60661663 -0.00489478 3.21322974 -0.0110873 4.81983691 -0.01845789 C9.21495137 -0.03480639 13.60988585 -0.03254987 18.00502002 -0.02708292 C22.75298232 -0.02440639 27.50089732 -0.0389563 32.24884033 -0.05117798 C41.54368936 -0.07220874 50.83847597 -0.07677414 60.13334598 -0.07499009 C67.69162528 -0.07368114 75.24988514 -0.07749343 82.80816078 -0.08491516 C84.98749584 -0.08701442 87.1668309 -0.08911202 89.34616596 -0.09120798 C90.43098279 -0.09225151 91.51579963 -0.09329504 92.63348971 -0.09437019 C113.1403978 -0.11326349 133.64727011 -0.11222531 154.15418331 -0.10540086 C172.89639705 -0.09982762 191.638474 -0.12064315 210.38065579 -0.15376133 C229.64211794 -0.18753188 248.90351464 -0.20266236 268.16500694 -0.1980443 C278.97198033 -0.19580282 289.77882734 -0.20099562 300.58577538 -0.22593689 C309.78768389 -0.24699361 318.98939674 -0.2504988 328.19131341 -0.2316373 C332.88186442 -0.22250594 337.57205105 -0.22125628 342.26257324 -0.24199295 C346.56542064 -0.26080447 350.86760782 -0.25608668 355.17043088 -0.23344713 C356.71816892 -0.22928685 358.2659586 -0.23337377 359.81364187 -0.24704307 C374.34882237 -0.36656739 387.11239967 2.8400029 399.09248352 11.39440918 C399.98451477 12.02991699 400.87654602 12.6654248 401.79560852 13.32019043 C415.7451968 23.97720829 425.69885977 39.07431267 429.09248352 56.39440918 C429.51119199 61.71045134 429.49870705 67.0075044 429.47343445 72.33520508 C429.47689622 73.93316005 429.48166425 75.53111263 429.48761618 77.12906027 C429.50008455 81.49544549 429.49397486 85.8616328 429.48465753 90.22801852 C429.47785024 94.94656607 429.48835658 99.66508035 429.49659729 104.38362122 C429.50991892 113.61751031 429.50706388 122.85132614 429.49835937 132.08521807 C429.49157705 139.59154207 429.49066847 147.09784557 429.49393082 154.60417175 C429.49439052 155.67357021 429.49485021 156.74296867 429.49532384 157.84477314 C429.49628305 160.01741223 429.49725569 162.19005131 429.49824162 164.36269039 C429.50679091 184.72308105 429.4969686 205.08343116 429.48084052 225.44381517 C429.46743776 242.90409208 429.46976599 260.36430914 429.4835968 277.82458496 C429.49966074 298.11341858 429.50596698 318.40221668 429.49676001 338.69105577 C429.49580439 340.85558605 429.49486128 343.02011632 429.49393082 345.18464661 C429.49346799 346.24956458 429.49300516 347.31448256 429.49252831 348.41167077 C429.48994087 355.90671397 429.49430413 363.40173459 429.50136948 370.89677429 C429.5097937 380.03396103 429.50748491 389.17107048 429.49152724 398.3082484 C429.48365698 402.96784396 429.4805317 407.62731076 429.4904747 412.28690529 C429.49944789 416.55667438 429.49444571 420.82619599 429.47854204 425.0959428 C429.47520533 426.6361739 429.4768632 428.17642613 429.48416941 429.71664351 C429.57092813 449.53446637 423.21978695 466.4262384 409.57685852 481.00769043 C397.72303971 492.39555724 382.1169097 500.50802619 365.48245907 500.52583694 C364.82857276 500.52788958 364.17468646 500.52994221 363.50098541 500.53205705 C361.3066072 500.53771823 359.11229193 500.53627089 356.91790771 500.53485107 C355.32997108 500.53743522 353.74203509 500.54044852 352.1541 500.54385448 C347.78755336 500.55192203 343.42102316 500.55371391 339.05446994 500.55445194 C334.34603171 500.55630295 329.637602 500.56385059 324.9291687 500.57058716 C314.63146798 500.58416985 304.33377115 500.59019526 294.03606296 500.59459782 C287.60507611 500.59736066 281.17409077 500.60159813 274.74310493 500.60610199 C256.93511137 500.61829518 239.12711901 500.628594 221.31912136 500.63197708 C220.17931777 500.63219665 219.03951417 500.63241621 217.86517108 500.63264243 C216.72264717 500.63286071 215.58012326 500.63307899 214.40297741 500.63330388 C212.08780952 500.63374735 209.77264164 500.63419391 207.45747375 500.63464355 C206.30907169 500.63486498 205.16066962 500.63508641 203.97746748 500.63531455 C185.37521089 500.63926135 166.7729935 500.65671154 148.17075204 500.68000308 C129.06880462 500.70372704 109.96687686 500.71617943 90.86491448 500.717345 C80.14126931 500.71826124 69.4176752 500.72400052 58.69404411 500.74216461 C49.56114219 500.75757976 40.42830711 500.76267774 31.29539465 500.75442651 C26.63773504 500.75052487 21.98020997 500.75142582 17.32256699 500.76548386 C13.05313441 500.77825199 8.78393707 500.77699978 4.51450468 500.76489314 C2.9754176 500.76294117 1.43631369 500.76599136 -0.10274977 500.77473751 C-20.31243019 500.88225199 -36.84803091 494.95334489 -51.45732117 480.87683105 C-66.40669739 465.59524647 -71.38169706 448.18369472 -71.30192566 427.36700439 C-71.30682318 425.77174873 -71.31301694 424.17649661 -71.32038355 422.58125043 C-71.33669715 418.22678934 -71.33448274 413.87251031 -71.32900858 409.51802945 C-71.32632773 404.81030161 -71.34088992 400.10262114 -71.35310364 395.39491272 C-71.37411556 386.1828874 -71.37870092 376.97092508 -71.37691575 367.75887862 C-71.37560596 360.26739865 -71.37942332 352.77593826 -71.38684082 345.28446198 C-71.38894011 343.12308097 -71.39103771 340.96169996 -71.39313364 338.80031896 C-71.39417717 337.7243936 -71.3952207 336.64846824 -71.39629585 335.53993908 C-71.4151812 315.20991905 -71.41415328 294.87993514 -71.40732652 274.54990998 C-71.4017526 255.97339489 -71.42257313 237.39701777 -71.45568699 218.82053491 C-71.48946433 199.72285631 -71.50458726 180.62524374 -71.49996996 161.52753472 C-71.49772933 150.81501514 -71.50290893 140.10262307 -71.52786255 129.39012909 C-71.54892795 120.26954422 -71.5524158 111.14915677 -71.53356296 102.02856365 C-71.52443731 97.38040425 -71.52316423 92.73261244 -71.54391861 88.08448219 C-71.56275157 83.81928576 -71.55798888 79.55475482 -71.53537279 75.28958276 C-71.53121788 73.75669143 -71.53528086 72.22374782 -71.54896873 70.69091198 C-71.6707336 56.04327909 -68.64567478 42.45186789 -59.90751648 30.39440918 C-59.27200867 29.50366699 -58.63650085 28.6129248 -57.98173523 27.69519043 C-43.47887341 8.68504066 -23.56761032 -0.08919152 0 0 Z " fill="#C0A4EE" transform="translate(70.90751647949219,-0.3944091796875)"/>
<path d="M0 0 C2.69108582 1.66094971 2.69108582 1.66094971 5 4 C5.60127258 6.8727417 5.60127258 6.8727417 5.56762695 10.23730469 C5.5672493 11.49830994 5.56687164 12.75931519 5.56648254 14.05853271 C5.54095124 15.42965689 5.51487129 16.80077095 5.48828125 18.171875 C5.47895149 19.57862084 5.47183614 20.98538296 5.46684265 22.39215088 C5.4477849 26.08824811 5.39869701 29.78335718 5.34332275 33.47906494 C5.29210246 37.2528344 5.26932282 41.02676411 5.24414062 44.80078125 C5.19057506 52.20097051 5.10527962 59.60034661 5 67 C17.35672709 58.53238021 17.35672709 58.53238021 29.625 49.9375 C30.32753906 49.44056641 31.03007812 48.94363281 31.75390625 48.43164062 C36.74689327 44.89682251 41.72675895 41.34380223 46.70068359 37.78222656 C51.20169706 34.561927 55.72427383 31.37294082 60.25 28.1875 C65.48661698 24.49940589 70.70361083 20.78606484 75.89404297 17.03320312 C77.41355783 15.93457156 78.93469957 14.83818637 80.45751953 13.74414062 C83.99902152 11.19580739 87.51055701 8.62266012 90.96484375 5.95703125 C91.58528564 5.48797363 92.20572754 5.01891602 92.8449707 4.53564453 C93.98699688 3.67070576 95.11825444 2.79125102 96.23510742 1.89404297 C100.65929841 -1.41871339 103.68464918 -1.53208362 109 -1 C111.8100346 0.79363911 113.50940468 2.01880935 115 5 C115.10880211 7.69214987 115.15663185 10.35905367 115.16062927 13.05192566 C115.168261 14.3150235 115.168261 14.3150235 115.17604691 15.60363847 C115.19181597 18.44173059 115.20030819 21.27979717 115.20874023 24.11791992 C115.21827512 26.1462419 115.22816612 28.17456223 115.23838806 30.20288086 C115.269816 36.87872375 115.29004495 43.55457928 115.30859375 50.23046875 C115.31189107 51.36543864 115.31518839 52.50040852 115.31858563 53.66977143 C115.34936876 64.36981061 115.37608232 75.06985253 115.39300442 85.76992321 C115.41491741 99.46639958 115.45689607 113.1624842 115.52644199 126.85880393 C115.57365728 136.48350031 115.59793474 146.10809091 115.6052013 155.73289949 C115.61016141 161.48394336 115.62527683 167.23454606 115.6649456 172.9854641 C115.7017811 178.39708473 115.7102315 183.80801167 115.69693947 189.21973419 C115.69699347 191.20510697 115.70731075 193.19051024 115.7286911 195.1757679 C115.75634795 197.8890684 115.74687612 200.59983472 115.72825623 203.31315613 C115.74505115 204.0968283 115.76184608 204.88050046 115.77914995 205.68792027 C115.68860736 210.97624327 114.19450788 213.78307034 110.7019363 217.72531873 C107.5335792 220.09828971 104.81261328 219.50834844 101 219 C100.34 218.67 99.68 218.34 99 218 C99 217.34 99 216.68 99 216 C98.33355469 215.77957031 97.66710937 215.55914062 96.98046875 215.33203125 C93.05443217 213.57740678 89.78872991 211.1994909 86.3125 208.6875 C85.57499512 208.1605957 84.83749023 207.63369141 84.07763672 207.09082031 C81.71424322 205.39962117 79.35668749 203.70052874 77 202 C75.4232096 200.86584021 73.84638689 199.73172534 72.26953125 198.59765625 C65.97674144 194.06537282 59.69903113 189.51286995 53.4375 184.9375 C45.2652364 178.98609582 36.97403809 173.19948329 28.70361328 167.38574219 C27.18179664 166.31590217 25.66030898 165.24559403 24.13916016 164.17480469 C22.72163208 163.17697055 21.30339319 162.18014504 19.88427734 161.18457031 C16.46984985 158.78042304 13.09329384 156.33622248 9.75610352 153.82568359 C9.04881607 153.29397552 8.34152863 152.76226746 7.61280823 152.21444702 C7.08058151 151.8136795 6.5483548 151.41291199 6 151 C6.00079559 151.74866837 6.00159119 152.49733673 6.00241089 153.26869202 C6.00462428 160.34534469 5.97808006 167.42118041 5.9197216 174.49755192 C5.89072347 178.13517831 5.872611 181.77216306 5.87988281 185.40991211 C5.88649985 188.92470271 5.86386043 192.43822811 5.82144547 195.95275688 C5.80498103 197.93727602 5.81834281 199.92197065 5.83224487 201.9065094 C5.72563254 208.55759933 5.44170806 213.01716053 0.66377258 217.88789368 C-1.75636272 219.50557136 -4.07676443 219.83575548 -6.94677734 219.55957031 C-10.81282477 218.50594597 -13.67739217 216.29879985 -16.8125 213.875 C-17.53606689 213.3402002 -18.25963379 212.80540039 -19.00512695 212.25439453 C-20.55008851 211.10991739 -22.08893897 209.95715188 -23.62207031 208.796875 C-26.81339548 206.3853603 -30.03928096 204.02219543 -33.26391602 201.65551758 C-35.67586607 199.88354702 -38.082438 198.10446869 -40.48828125 196.32421875 C-49.7141284 189.51137528 -59.08854692 182.92051075 -68.52734375 176.40625 C-79.17402332 169.04283715 -89.70088651 161.52223685 -100.125 153.84765625 C-110.06906185 146.5305695 -120.05914399 139.28283678 -130.25 132.3125 C-132.18999711 130.98234033 -134.12993105 129.6520886 -136.06982422 128.32177734 C-137.3801281 127.42448602 -138.69169685 126.52903954 -140.00439453 125.63525391 C-141.94731709 124.30818324 -143.88070941 122.96820604 -145.8125 121.625 C-146.39354492 121.23223877 -146.97458984 120.83947754 -147.57324219 120.43481445 C-151.01934065 118.01811689 -153.20132363 115.81835052 -155 112 C-155.5 108.5 -155.5 108.5 -155 105 C-149.55573276 98.0245326 -140.71185846 93.0304439 -133.5625 87.875 C-132.39569702 87.03304077 -132.39569702 87.03304077 -131.20532227 86.17407227 C-122.46610432 79.87904501 -113.66139811 73.67763406 -104.84716797 67.48828125 C-97.32570293 62.20577184 -89.82823082 56.90190778 -82.4375 51.4375 C-77.42125522 47.73007097 -72.34171521 44.13797125 -67.1875 40.625 C-54.01109505 31.63729131 -41.17218597 22.17642973 -28.36791992 12.66870117 C-24.31094535 9.66423324 -20.2251474 6.76283571 -16 4 C-14.4221875 2.9171875 -14.4221875 2.9171875 -12.8125 1.8125 C-8.144368 -1.19585173 -5.36599319 -1.20272261 0 0 Z " fill="#040204" transform="translate(265,141)"/>
<path d="M0 0 C1.60661663 -0.00489478 3.21322974 -0.0110873 4.81983691 -0.01845789 C9.21495137 -0.03480639 13.60988585 -0.03254987 18.00502002 -0.02708292 C22.75298232 -0.02440639 27.50089732 -0.0389563 32.24884033 -0.05117798 C41.54368936 -0.07220874 50.83847597 -0.07677414 60.13334598 -0.07499009 C67.69162528 -0.07368114 75.24988514 -0.07749343 82.80816078 -0.08491516 C84.98749584 -0.08701442 87.1668309 -0.08911202 89.34616596 -0.09120798 C90.43098279 -0.09225151 91.51579963 -0.09329504 92.63348971 -0.09437019 C113.1403978 -0.11326349 133.64727011 -0.11222531 154.15418331 -0.10540086 C172.89639705 -0.09982762 191.638474 -0.12064315 210.38065579 -0.15376133 C229.64211794 -0.18753188 248.90351464 -0.20266236 268.16500694 -0.1980443 C278.97198033 -0.19580282 289.77882734 -0.20099562 300.58577538 -0.22593689 C309.78768389 -0.24699361 318.98939674 -0.2504988 328.19131341 -0.2316373 C332.88186442 -0.22250594 337.57205105 -0.22125628 342.26257324 -0.24199295 C346.56542064 -0.26080447 350.86760782 -0.25608668 355.17043088 -0.23344713 C356.71816892 -0.22928685 358.2659586 -0.23337377 359.81364187 -0.24704307 C374.34882237 -0.36656739 387.11239967 2.8400029 399.09248352 11.39440918 C399.98451477 12.02991699 400.87654602 12.6654248 401.79560852 13.32019043 C415.7451968 23.97720829 425.69885977 39.07431267 429.09248352 56.39440918 C429.51119199 61.71045134 429.49870705 67.0075044 429.47343445 72.33520508 C429.47689622 73.93316005 429.48166425 75.53111263 429.48761618 77.12906027 C429.50008455 81.49544549 429.49397486 85.8616328 429.48465753 90.22801852 C429.47785024 94.94656607 429.48835658 99.66508035 429.49659729 104.38362122 C429.50991892 113.61751031 429.50706388 122.85132614 429.49835937 132.08521807 C429.49157705 139.59154207 429.49066847 147.09784557 429.49393082 154.60417175 C429.49439052 155.67357021 429.49485021 156.74296867 429.49532384 157.84477314 C429.49628305 160.01741223 429.49725569 162.19005131 429.49824162 164.36269039 C429.50679091 184.72308105 429.4969686 205.08343116 429.48084052 225.44381517 C429.46743776 242.90409208 429.46976599 260.36430914 429.4835968 277.82458496 C429.49966074 298.11341858 429.50596698 318.40221668 429.49676001 338.69105577 C429.49580439 340.85558605 429.49486128 343.02011632 429.49393082 345.18464661 C429.49346799 346.24956458 429.49300516 347.31448256 429.49252831 348.41167077 C429.48994087 355.90671397 429.49430413 363.40173459 429.50136948 370.89677429 C429.5097937 380.03396103 429.50748491 389.17107048 429.49152724 398.3082484 C429.48365698 402.96784396 429.4805317 407.62731076 429.4904747 412.28690529 C429.49944789 416.55667438 429.49444571 420.82619599 429.47854204 425.0959428 C429.47520533 426.6361739 429.4768632 428.17642613 429.48416941 429.71664351 C429.57092813 449.53446637 423.21978695 466.4262384 409.57685852 481.00769043 C397.72303971 492.39555724 382.1169097 500.50802619 365.48245907 500.52583694 C364.82857276 500.52788958 364.17468646 500.52994221 363.50098541 500.53205705 C361.3066072 500.53771823 359.11229193 500.53627089 356.91790771 500.53485107 C355.32997108 500.53743522 353.74203509 500.54044852 352.1541 500.54385448 C347.78755336 500.55192203 343.42102316 500.55371391 339.05446994 500.55445194 C334.34603171 500.55630295 329.637602 500.56385059 324.9291687 500.57058716 C314.63146798 500.58416985 304.33377115 500.59019526 294.03606296 500.59459782 C287.60507611 500.59736066 281.17409077 500.60159813 274.74310493 500.60610199 C256.93511137 500.61829518 239.12711901 500.628594 221.31912136 500.63197708 C220.17931777 500.63219665 219.03951417 500.63241621 217.86517108 500.63264243 C216.72264717 500.63286071 215.58012326 500.63307899 214.40297741 500.63330388 C212.08780952 500.63374735 209.77264164 500.63419391 207.45747375 500.63464355 C206.30907169 500.63486498 205.16066962 500.63508641 203.97746748 500.63531455 C185.37521089 500.63926135 166.7729935 500.65671154 148.17075204 500.68000308 C129.06880462 500.70372704 109.96687686 500.71617943 90.86491448 500.717345 C80.14126931 500.71826124 69.4176752 500.72400052 58.69404411 500.74216461 C49.56114219 500.75757976 40.42830711 500.76267774 31.29539465 500.75442651 C26.63773504 500.75052487 21.98020997 500.75142582 17.32256699 500.76548386 C13.05313441 500.77825199 8.78393707 500.77699978 4.51450468 500.76489314 C2.9754176 500.76294117 1.43631369 500.76599136 -0.10274977 500.77473751 C-20.31243019 500.88225199 -36.84803091 494.95334489 -51.45732117 480.87683105 C-66.40669739 465.59524647 -71.38169706 448.18369472 -71.30192566 427.36700439 C-71.30682318 425.77174873 -71.31301694 424.17649661 -71.32038355 422.58125043 C-71.33669715 418.22678934 -71.33448274 413.87251031 -71.32900858 409.51802945 C-71.32632773 404.81030161 -71.34088992 400.10262114 -71.35310364 395.39491272 C-71.37411556 386.1828874 -71.37870092 376.97092508 -71.37691575 367.75887862 C-71.37560596 360.26739865 -71.37942332 352.77593826 -71.38684082 345.28446198 C-71.38894011 343.12308097 -71.39103771 340.96169996 -71.39313364 338.80031896 C-71.39417717 337.7243936 -71.3952207 336.64846824 -71.39629585 335.53993908 C-71.4151812 315.20991905 -71.41415328 294.87993514 -71.40732652 274.54990998 C-71.4017526 255.97339489 -71.42257313 237.39701777 -71.45568699 218.82053491 C-71.48946433 199.72285631 -71.50458726 180.62524374 -71.49996996 161.52753472 C-71.49772933 150.81501514 -71.50290893 140.10262307 -71.52786255 129.39012909 C-71.54892795 120.26954422 -71.5524158 111.14915677 -71.53356296 102.02856365 C-71.52443731 97.38040425 -71.52316423 92.73261244 -71.54391861 88.08448219 C-71.56275157 83.81928576 -71.55798888 79.55475482 -71.53537279 75.28958276 C-71.53121788 73.75669143 -71.53528086 72.22374782 -71.54896873 70.69091198 C-71.6707336 56.04327909 -68.64567478 42.45186789 -59.90751648 30.39440918 C-59.27200867 29.50366699 -58.63650085 28.6129248 -57.98173523 27.69519043 C-43.47887341 8.68504066 -23.56761032 -0.08919152 0 0 Z M-34.90751648 33.39440918 C-35.5082196 33.86878418 -36.10892273 34.34315918 -36.72782898 34.83190918 C-43.70185113 40.83644843 -48.0418224 50.79732693 -50.90751648 59.39440918 C-51.00369154 61.46953349 -51.03847551 63.54766982 -51.04173756 65.62501907 C-51.0461954 66.93846526 -51.05065324 68.25191145 -51.05524617 69.60515904 C-51.05515687 71.07163192 -51.05496701 72.53810479 -51.0546875 74.00457764 C-51.05798599 75.55565189 -51.06171152 77.10672528 -51.06582898 78.65779757 C-51.07585957 82.93185651 -51.0795675 87.20590141 -51.08221829 91.47997046 C-51.08611843 96.0855707 -51.09569724 100.69115979 -51.10443115 105.29675293 C-51.12420799 116.42804188 -51.13426517 127.55933176 -51.14315894 138.69063389 C-51.14754149 143.93367709 -51.15290854 149.17671927 -51.15814781 154.41976166 C-51.1751644 171.85279251 -51.18965679 189.28582274 -51.19689655 206.71886063 C-51.19880644 211.24449921 -51.20072677 215.7701378 -51.2026825 220.29577637 C-51.20316624 221.42059759 -51.20364998 222.54541881 -51.20414837 223.70432553 C-51.21244187 241.91023788 -51.23776536 260.11608437 -51.27026317 278.32196799 C-51.30336366 297.01819188 -51.32134818 315.71438236 -51.32454079 334.41063571 C-51.32670356 344.9058304 -51.33541759 355.40092918 -51.36100197 365.89609528 C-51.38275014 374.8382985 -51.39073931 383.78038252 -51.38103519 392.72260919 C-51.37650186 397.28143138 -51.37831996 401.84000787 -51.39779663 406.39879608 C-51.41551146 410.58155658 -51.41436379 414.76389366 -51.39889934 418.94665918 C-51.39653576 420.45086931 -51.40078112 421.95510942 -51.41272799 423.45927396 C-51.52023038 437.90210256 -49.62005458 451.12786499 -39.90751648 462.39440918 C-39.28361023 463.16269043 -38.65970398 463.93097168 -38.01689148 464.72253418 C-31.16328888 472.41321801 -21.60768897 477.16101835 -11.90751648 480.39440918 C-9.80271007 480.48725467 -7.69500786 480.51814891 -5.58815479 480.51745701 C-4.94142289 480.51861085 -4.29469098 480.5197647 -3.62836114 480.52095351 C-1.44638844 480.52361481 0.73551148 480.51910199 2.91748047 480.5146637 C4.49161875 480.5150995 6.06575696 480.51597457 7.63989478 480.51725286 C11.97712557 480.51949607 16.31433181 480.51547889 20.65155947 480.5104748 C25.32435204 480.50616802 29.99714314 480.50761689 34.66993713 480.50837708 C42.76973487 480.50890216 50.86952458 480.50575692 58.9693203 480.50013924 C70.680356 480.49202222 82.39138781 480.48940881 94.10242603 480.48815124 C113.10147409 480.48596105 132.10051787 480.47930182 151.0995636 480.46984863 C169.55854775 480.46067369 188.01753075 480.45359326 206.47651672 480.44934082 C207.61377387 480.4490781 208.75103101 480.44881537 209.9227505 480.44854469 C215.62786973 480.44723968 221.33298898 480.44597596 227.03810823 480.44473279 C274.38956962 480.43436117 321.74102636 480.41674371 369.09248352 480.39440918 C369.09248352 479.73440918 369.09248352 479.07440918 369.09248352 478.39440918 C370.30935852 478.39440918 371.52623352 478.39440918 372.77998352 478.39440918 C381.85896929 477.37767734 391.11472469 470.48525939 397.24482727 463.92565918 C406.73841943 450.91963863 409.395151 437.97795949 409.36663818 422.16278076 C409.37109425 420.60525149 409.3764095 419.04772447 409.38250691 417.49020076 C409.39665289 413.22163044 409.39835085 408.95313305 409.39791 404.68454266 C409.39956119 400.07635182 409.41263324 395.46819078 409.42410278 390.86001587 C409.44692731 380.78975751 409.45487045 370.71952026 409.45992923 360.64923954 C409.46318879 354.35877482 409.46971279 348.06831619 409.47693062 341.77785492 C409.49649215 324.35319338 409.51289933 306.92853751 409.51580715 289.50386429 C409.51608851 287.83217828 409.51608851 287.83217828 409.51637555 286.12672083 C409.51674179 283.86756627 409.51710549 281.6084117 409.51746666 279.34925714 C409.51764947 278.22784872 409.51783228 277.1064403 409.51802063 275.9510498 C409.51820118 274.82826916 409.51838173 273.70548851 409.51856775 272.54868421 C409.52210972 254.3539745 409.54913558 236.15938311 409.58651852 217.96471444 C409.6246127 199.27399178 409.6439647 180.58332783 409.64426666 161.89256549 C409.64485093 151.40255333 409.65332355 140.91268238 409.68226433 130.4227066 C409.70679287 121.49112803 409.71405101 112.55974221 409.6990168 103.62813905 C409.69185433 99.07365646 409.69267679 94.51955437 409.7154274 89.96511459 C409.73608278 85.79002569 409.73335639 81.61560825 409.71255255 77.4405261 C409.70907018 75.93584597 409.7139143 74.43111674 409.72825699 72.92650095 C409.86555386 57.52200776 404.86160736 45.30928272 394.21748352 34.14440918 C388.17181795 28.35208578 380.23686347 22.67501172 371.65498352 22.20690918 C370.80935852 22.26878418 369.96373352 22.33065918 369.09248352 22.39440918 C369.09248352 21.73440918 369.09248352 21.07440918 369.09248352 20.39440918 C320.79368549 20.25700805 272.49490818 20.15131667 224.19595315 20.0880172 C218.49089004 20.08051317 212.78582731 20.07274721 207.08076477 20.06481934 C205.94501289 20.06324547 204.80926101 20.06167161 203.6390924 20.06005006 C185.26092241 20.03395832 166.8828653 19.98665973 148.50476222 19.9314924 C129.64027464 19.87533829 110.77584609 19.84204696 91.91127837 19.82987821 C80.27536351 19.82165482 68.63976771 19.79570338 57.00395109 19.74691038 C49.01953624 19.7151391 41.03528579 19.70562118 33.05081235 19.71340092 C28.44745354 19.71723534 23.84465139 19.71145208 19.24139214 19.67917633 C15.01893407 19.64978817 10.79740229 19.64862441 6.57489987 19.66901581 C5.05512656 19.67153265 3.53529335 19.66408117 2.01563637 19.64511009 C-12.59356231 19.47347871 -23.93707328 23.5254161 -34.90751648 33.39440918 Z " fill="#040405" transform="translate(70.90751647949219,-0.3944091796875)"/>
<path d="M0 0 C0 52.8 0 105.6 0 160 C-7.87524258 155.49986138 -7.87524258 155.49986138 -10.91015625 153.3359375 C-11.91888794 152.62026611 -11.91888794 152.62026611 -12.94799805 151.89013672 C-13.64578369 151.3901416 -14.34356934 150.89014648 -15.0625 150.375 C-15.80346924 149.84793457 -16.54443848 149.32086914 -17.30786133 148.77783203 C-19.540831 147.18835774 -21.77065466 145.59455212 -24 144 C-25.24203247 143.11436588 -26.48420973 142.22893476 -27.7265625 141.34375 C-30.59208849 139.30071758 -33.45440543 137.25323826 -36.31591797 135.20458984 C-37.99194181 134.00576386 -39.66952331 132.80915273 -41.34765625 131.61328125 C-47.9151614 126.93181429 -54.46400443 122.22537139 -61 117.5 C-63.29291904 115.84345552 -65.58604509 114.18719857 -67.87939453 112.53125 C-69.20612647 111.5732414 -70.53265688 110.61495357 -71.85888672 109.65625 C-79.86741375 103.87294134 -87.97046855 98.24476477 -96.16577148 92.72851562 C-101.62053409 89.03194768 -106.84382535 85.10214577 -112 81 C-110.88454275 77.65362825 -110.32574594 77.24746358 -107.53515625 75.328125 C-106.82302979 74.83256104 -106.11090332 74.33699707 -105.37719727 73.82641602 C-104.23142212 73.04609009 -104.23142212 73.04609009 -103.0625 72.25 C-101.89062134 71.43776978 -101.89062134 71.43776978 -100.69506836 70.60913086 C-98.46772053 69.06633807 -96.23446208 67.53246147 -94 66 C-92.35244029 64.85665037 -90.70621775 63.71136611 -89.0625 62.5625 C-88.30582031 62.03398437 -87.54914063 61.50546875 -86.76953125 60.9609375 C-82.11359438 57.66435032 -77.49685894 54.31345251 -72.87524414 50.96899414 C-68.2610833 47.63047094 -63.63857157 44.30451431 -59 41 C-54.47994597 37.77984799 -49.97525564 34.53932912 -45.47998047 31.28466797 C-33.07913351 22.30693021 -20.59315729 13.45613551 -8 4.75 C-6.96625244 4.03239502 -6.96625244 4.03239502 -5.91162109 3.30029297 C-1.11731795 0 -1.11731795 0 0 0 Z " fill="#EDCE86" transform="translate(250,170)"/>
<path d="M0 0 C0 52.8 0 105.6 0 160 C-2.87506894 158.56246553 -5.18635741 157.26012989 -7.7578125 155.42578125 C-8.81150024 154.67760132 -8.81150024 154.67760132 -9.88647461 153.91430664 C-10.62518799 153.38571045 -11.36390137 152.85711426 -12.125 152.3125 C-13.67045527 151.21337623 -15.21602737 150.11441671 -16.76171875 149.015625 C-17.50083496 148.48904297 -18.23995117 147.96246094 -19.00146484 147.41992188 C-21.30263498 145.78498351 -23.61791311 144.17118022 -25.9375 142.5625 C-34.50954391 136.57222228 -42.94409729 130.38513991 -51.4140625 124.25195312 C-61.82555458 116.69820676 -61.82555458 116.69820676 -72.3125 109.25 C-73.34129272 108.50641235 -73.34129272 108.50641235 -74.39086914 107.74780273 C-77.04209097 105.90530752 -77.04209097 105.90530752 -80.22900391 104.30053711 C-85.52627429 101.27691391 -89.19140807 99.16838573 -91.37670898 93.30810547 C-92.17255265 88.97793029 -92.18714204 84.70027653 -92.0625 80.3125 C-92.05515839 79.1675708 -92.05515839 79.1675708 -92.04766846 77.99951172 C-91.9264632 70.49704457 -91.58964992 63.58101616 -85.98828125 58.01171875 C-81.82264751 54.82404586 -77.30200605 52.46705414 -72.56005859 50.25146484 C-68.95521992 48.48926734 -65.87365265 46.22938758 -62.6875 43.8125 C-61.57481525 43.01167836 -60.4602393 42.21347759 -59.34375 41.41796875 C-55.77372944 38.8446491 -52.2308894 36.234799 -48.6875 33.625 C-39.78044867 27.06666638 -30.72615088 20.72072486 -21.67285156 14.36669922 C-19.36432896 12.74575028 -17.05714581 11.1229077 -14.75 9.5 C-14.04697754 9.00765869 -13.34395508 8.51531738 -12.61962891 8.00805664 C-9.71224836 5.9625799 -6.89225305 3.91168283 -4.140625 1.65625 C-2 0 -2 0 0 0 Z " fill="#EDCD85" transform="translate(360,170)"/>
<path d="M0 0 C4.16138263 -0.08159574 7.9472484 0.01751476 12 1 C12 1.66 12 2.32 12 3 C136.41 3 260.82 3 389 3 C389 3.33 389 3.66 389 4 C340.59903728 4.06865058 292.19807948 4.1215209 243.79707766 4.15319599 C238.08428216 4.15694816 232.37148676 4.16083112 226.65869141 4.16479492 C225.52136566 4.16558185 224.38403992 4.16636878 223.21224976 4.16717956 C204.79127224 4.18023728 186.37032278 4.20389315 167.94936192 4.23145839 C149.05099766 4.25950239 130.1526481 4.27617413 111.25426388 4.28226548 C99.59079761 4.28638401 87.92741063 4.2993971 76.26396877 4.3237494 C68.26841053 4.33959416 60.27289336 4.34440321 52.27732056 4.34050413 C47.66271787 4.33858063 43.04825387 4.34155151 38.43367577 4.35761642 C34.2080511 4.37221988 29.98265833 4.37294946 25.75702298 4.36269668 C24.22929523 4.36142958 22.70155299 4.36523138 21.17385375 4.37464955 C13.57968789 4.41874034 6.95326025 4.38392299 0 1 C0 0.67 0 0.34 0 0 Z " fill="#9683B7" transform="translate(51,476)"/>
<path d="M0 0 C0.33 0 0.66 0 1 0 C1.07000819 26.93761671 1.12294796 53.87521984 1.15543652 80.81290913 C1.17092088 93.31988372 1.19204035 105.82680187 1.22631836 118.33374023 C1.2561727 129.23179813 1.27556357 140.12981515 1.28226548 151.0279128 C1.28618447 156.80107791 1.29542715 162.57412608 1.31719017 168.3472538 C1.33749269 173.77673899 1.34384646 179.20605862 1.33932304 184.63557816 C1.34015104 186.63228567 1.34615365 188.62899851 1.35761642 190.62567329 C1.37246304 193.34422684 1.36898241 196.06214888 1.36076355 198.78071594 C1.36950207 199.57740372 1.3782406 200.37409149 1.38724393 201.19492131 C1.34328097 206.54598028 1.34328097 206.54598028 -0.52254772 209.01370525 C-1.01010697 209.33918252 -1.49766623 209.66465979 -2 210 C-2 207 -2 207 -1 206 C-0.90442715 203.40386714 -0.87451269 200.8344414 -0.88647461 198.23796082 C-0.88632575 197.41505108 -0.88617689 196.59214134 -0.88602352 195.74429494 C-0.88672235 192.96516539 -0.89458418 190.18610058 -0.90234375 187.40698242 C-0.90426136 185.42320289 -0.9057259 183.43942288 -0.9067688 181.4556427 C-0.90993849 177.17273764 -0.91622015 172.88985211 -0.92483521 168.60695457 C-0.93831128 161.83858255 -0.94424209 155.07021712 -0.94897461 148.30183411 C-0.96104315 132.70777704 -0.98308114 117.11373694 -1.00520325 101.51969147 C-1.02536416 87.23990967 -1.04344191 72.96013361 -1.05341816 58.68034059 C-1.05841023 51.94847616 -1.06828487 45.21664163 -1.08184814 38.48478925 C-1.08929516 34.29893634 -1.09262095 30.11308758 -1.0948143 25.92722893 C-1.09669028 23.98254906 -1.10029907 22.03787 -1.10574722 20.09319687 C-1.11293902 17.44310857 -1.11400206 14.79308648 -1.11352539 12.14299011 C-1.11712035 11.36935204 -1.12071531 10.59571397 -1.12441921 9.79863232 C-1.11783743 6.39367217 -1.07560527 3.25376379 0 0 Z " fill="#0F081A" transform="translate(379,146)"/>
<path d="M0 0 C0.66 0.33 1.32 0.66 2 1 C-2.60136502 6.53601728 -7.46398272 11.39863498 -13 16 C-13 10.79628205 -8.49504984 7.5790344 -5 4 C-3.37707762 2.6137538 -1.7331451 1.24569804 0 0 Z " fill="#6A6A6A" transform="translate(27,13)"/>
<path d="M0 0 C0.33 0.66 0.66 1.32 1 2 C-0.32 2.33 -1.64 2.66 -3 3 C-3 3.99 -3 4.98 -3 6 C-4.65 6.33 -6.3 6.66 -8 7 C-8 8.98 -8 10.96 -8 13 C-9.65 12.01 -11.3 11.02 -13 10 C-11.86330649 6.58991946 -11.00603364 5.95621779 -8.1875 3.875 C-7.15689453 3.09769531 -7.15689453 3.09769531 -6.10546875 2.3046875 C-4.03279755 1.02032353 -2.38201668 0.43893341 0 0 Z " fill="#D5BE89" transform="translate(151,241)"/>
<path d="M0 0 C4.43458973 1.3937282 6.87378374 3.60582235 10 7 C6.7 7.33 3.4 7.66 0 8 C0.99 6.35 1.98 4.7 3 3 C2.01 3 1.02 3 0 3 C0 2.01 0 1.02 0 0 Z " fill="#B9A2E0" transform="translate(240,349)"/>
<path d="M0 0 C0.66 0.33 1.32 0.66 2 1 C1.67 1.66 1.34 2.32 1 3 C0.34 3 -0.32 3 -1 3 C-1.226875 3.5775 -1.45375 4.155 -1.6875 4.75 C-3.33038023 7.5663661 -5.39533227 9.08077114 -8 11 C-8.33 10.34 -8.66 9.68 -9 9 C-9.66 8.67 -10.32 8.34 -11 8 C-7.37 5.36 -3.74 2.72 0 0 Z " fill="#DCC38A" transform="translate(199,205)"/>
<path d="M0 0 C0 2 0 2 -1.375 3.625 C-3 5 -3 5 -5 5 C-5 5.66 -5 6.32 -5 7 C-6.7015625 7.680625 -6.7015625 7.680625 -8.4375 8.375 C-12.04721692 9.57095806 -12.04721692 9.57095806 -13 12 C-14.32 11.67 -15.64 11.34 -17 11 C-14.54735411 9.15895764 -12.08699041 7.32852207 -9.625 5.5 C-8.57699219 4.71302734 -8.57699219 4.71302734 -7.5078125 3.91015625 C-6.8375 3.41386719 -6.1671875 2.91757813 -5.4765625 2.40625 C-4.85861816 1.94541016 -4.24067383 1.48457031 -3.60400391 1.00976562 C-2 0 -2 0 0 0 Z " fill="#CCB67F" transform="translate(332,190)"/>
<path d="M0 0 C2.31 0.33 4.62 0.66 7 1 C7 1.66 7 2.32 7 3 C7.99 3.33 8.98 3.66 10 4 C9.67 4.99 9.34 5.98 9 7 C2.25 3.375 2.25 3.375 0 0 Z " fill="#DCC385" transform="translate(193,289)"/>
<path d="M0 0 C2.875 -0.125 2.875 -0.125 6 0 C6.66 0.66 7.32 1.32 8 2 C8.33 2 8.66 2 9 2 C9 3.65 9 5.3 9 7 C2.25 3.375 2.25 3.375 0 0 Z " fill="#DFC788" transform="translate(175,276)"/>
<path d="M0 0 C0 0.99 0 1.98 0 3 C-0.60328125 2.91621094 -1.2065625 2.83242187 -1.828125 2.74609375 C-3.02695312 2.59333984 -3.02695312 2.59333984 -4.25 2.4375 C-5.03890625 2.33308594 -5.8278125 2.22867188 -6.640625 2.12109375 C-9.00532874 1.99972651 -10.7511037 2.30366743 -13 3 C-12.67 2.01 -12.34 1.02 -12 0 C-7.6835078 -0.76173392 -4.25566547 -1.16063604 0 0 Z " fill="#A692C4" transform="translate(267,139)"/>
<path d="M0 0 C-1 1.5 -1 1.5 -3 3 C-5.79873829 3.39491399 -8.13817454 3.227129 -11 3 C-11.66 2.34 -12.32 1.68 -13 1 C-11.39796533 0.63631108 -9.79325797 0.28438048 -8.1875 -0.0625 C-7.29417969 -0.25972656 -6.40085937 -0.45695312 -5.48046875 -0.66015625 C-3 -1 -3 -1 0 0 Z " fill="#251C34" transform="translate(267,357)"/>
<path d="M0 0 C-1.2824977 2.86095641 -2.45343989 5.11365918 -5 7 C-7.6875 7.1875 -7.6875 7.1875 -10 7 C-3.24137931 0 -3.24137931 0 0 0 Z " fill="#170F21" transform="translate(299,189)"/>
<path d="M0 0 C0.66 0.33 1.32 0.66 2 1 C0.4375 3.9375 0.4375 3.9375 -2 7 C-5.75 7.875 -5.75 7.875 -9 8 C-6.14723863 5.06799526 -3.34920216 2.35684596 0 0 Z " fill="#191224" transform="translate(353,149)"/>
<path d="M0 0 C2 1 2 1 3 3 C-0.72965139 5.03435531 -2.66905042 6 -7 6 C-4.74259377 3.66475218 -2.7194239 1.81294927 0 0 Z " fill="#DDC184" transform="translate(184,216)"/>
<path d="M0 0 C0.66 0.33 1.32 0.66 2 1 C1.360625 1.268125 0.72125 1.53625 0.0625 1.8125 C-2.33131686 2.88667752 -2.33131686 2.88667752 -3 6 C-3.99 6.66 -4.98 7.32 -6 8 C-6.99 7.67 -7.98 7.34 -9 7 C-6.03 4.69 -3.06 2.38 0 0 Z " fill="#1F172C" transform="translate(183,192)"/>
<path d="M0 0 C6.875 3.75 6.875 3.75 8 6 C7.34 6 6.68 6 6 6 C6 6.66 6 7.32 6 8 C5.34 8 4.68 8 4 8 C3.34 6.02 2.68 4.04 2 2 C1.34 2 0.68 2 0 2 C0 1.34 0 0.68 0 0 Z " fill="#170E07" transform="translate(243,326)"/>
<path d="M0 0 C4.49652778 -0.36458333 4.49652778 -0.36458333 6.8125 1.3125 C8 3 8 3 8 6 C4.63408134 4.55746343 2.48952921 2.66735273 0 0 Z " fill="#E1CB8E" transform="translate(351,323)"/>
<path d="M0 0 C0.99 0 1.98 0 3 0 C3 0.66 3 1.32 3 2 C3.99 1.67 4.98 1.34 6 1 C5.67 2.65 5.34 4.3 5 6 C2.5 4.6875 2.5 4.6875 0 3 C0 2.01 0 1.02 0 0 Z " fill="#E0C887" transform="translate(243,323)"/>
<path d="M0 0 C1.1446875 0.2475 1.1446875 0.2475 2.3125 0.5 C5.03596236 1.09145396 5.03596236 1.09145396 8 1 C8.33 2.32 8.66 3.64 9 5 C4.98525763 5 3.18024863 3.33218233 0 1 C0 0.67 0 0.34 0 0 Z " fill="#D2BA81" transform="translate(315,298)"/>
<path d="M0 0 C2.625 0.9375 2.625 0.9375 5 2 C5 2.99 5 3.98 5 5 C1.73045798 4.43628586 0.17424117 3.50037734 -2 1 C-1.34 0.67 -0.68 0.34 0 0 Z " fill="#E2C88E" transform="translate(274,266)"/>
<path d="M0 0 C0.66 0.33 1.32 0.66 2 1 C0.3125 3.5 0.3125 3.5 -2 6 C-4.75 6.3125 -4.75 6.3125 -7 6 C-4.74259377 3.66475218 -2.7194239 1.81294927 0 0 Z " fill="#21192F" transform="translate(141,222)"/>
<path d="M0 0 C0.66 0.33 1.32 0.66 2 1 C0.71937515 2.7074998 -0.61767557 4.37373596 -2 6 C-2.66 6 -3.32 6 -4 6 C-4.33 6.66 -4.66 7.32 -5 8 C-5.99 7.34 -6.98 6.68 -8 6 C-5.36 4.02 -2.72 2.04 0 0 Z " fill="#1F162D" transform="translate(287,196)"/>
<path d="M0 0 C0.66 0.33 1.32 0.66 2 1 C-1.75 5.875 -1.75 5.875 -4 7 C-4.99 6.34 -5.98 5.68 -7 5 C-4.69 3.35 -2.38 1.7 0 0 Z " fill="#1A1324" transform="translate(151,215)"/>
<path d="M0 0 C0.66 0.33 1.32 0.66 2 1 C0.10595266 4.34243648 -0.94091591 4.97997149 -4.6875 6.25 C-6.3271875 6.62125 -6.3271875 6.62125 -8 7 C-5.4837822 4.39391727 -2.94865641 2.10618315 0 0 Z " fill="#231935" transform="translate(194,184)"/>
<path d="M0 0 C0.66 0.33 1.32 0.66 2 1 C1.4375 2.9375 1.4375 2.9375 0 5 C-3.625 5.75 -3.625 5.75 -7 6 C-4.74259377 3.66475218 -2.7194239 1.81294927 0 0 Z " fill="#191127" transform="translate(317,175)"/>
<path d="M0 0 C2.05078125 0.03255208 4.1015625 0.06510417 6.15234375 0.09765625 C6.48234375 0.75765625 6.81234375 1.41765625 7.15234375 2.09765625 C0.52734375 3.34765625 0.52734375 3.34765625 -2.84765625 1.09765625 C-1.84765625 0.09765625 -1.84765625 0.09765625 0 0 Z " fill="#271E36" transform="translate(367.84765625,139.90234375)"/>
<path d="M0 0 C2.97 1.98 2.97 1.98 6 4 C5.01 5.485 5.01 5.485 4 7 C2 6 2 6 0 3 C0 2.01 0 1.02 0 0 Z " fill="#B49DD8" transform="translate(329,333)"/>
<path d="M0 0 C4.455 2.97 4.455 2.97 9 6 C8.01 6.495 8.01 6.495 7 7 C3.9375 5.8125 3.9375 5.8125 1 4 C0.67 2.68 0.34 1.36 0 0 Z " fill="#A492C3" transform="translate(201,320)"/>
<path d="M0 0 C0.66 0.33 1.32 0.66 2 1 C0.35 2.65 -1.3 4.3 -3 6 C-3.66 5.34 -4.32 4.68 -5 4 C-3.35 2.68 -1.7 1.36 0 0 Z M-5 6 C-3 7 -3 7 -3 7 Z " fill="#D7BC83" transform="translate(309,205)"/>
<path d="M0 0 C0.33 0.99 0.66 1.98 1 3 C0.01 3.33 -0.98 3.66 -2 4 C-2.33 4.66 -2.66 5.32 -3 6 C-4.32 5.67 -5.64 5.34 -7 5 C-4.69 3.35 -2.38 1.7 0 0 Z " fill="#CEB77E" transform="translate(343,181)"/>
<path d="M0 0 C0.33 0.99 0.66 1.98 1 3 C0.01 4.485 0.01 4.485 -1 6 C-1.66 6 -2.32 6 -3 6 C-3 6.99 -3 7.98 -3 9 C-3.66 9 -4.32 9 -5 9 C-3.7508258 5.54074837 -2.32472205 2.85306797 0 0 Z " fill="#9D8BBC" transform="translate(31,38)"/>
<path d="M0 0 C0.99 0.33 1.98 0.66 3 1 C3.5625 2.9375 3.5625 2.9375 4 5 C4.66 5.66 5.32 6.32 6 7 C5.01 7 4.02 7 3 7 C0.64276511 4.46815512 0 3.52809907 0 0 Z " fill="#A08EBE" transform="translate(27,454)"/>
<path d="M0 0 C2.31 0.66 4.62 1.32 7 2 C7.33 3.32 7.66 4.64 8 6 C1.125 2.25 1.125 2.25 0 0 Z " fill="#D0B883" transform="translate(152,260)"/>
<path d="M0 0 C0 0.66 0 1.32 0 2 C-2.31 3.32 -4.62 4.64 -7 6 C-6.75 4.125 -6.75 4.125 -6 2 C-3.85331506 0.61504198 -2.56128588 0 0 0 Z " fill="#B19CD8" transform="translate(157,210)"/>
<path d="M0 0 C0.66 0 1.32 0 2 0 C2 0.66 2 1.32 2 2 C3.32 2.66 4.64 3.32 6 4 C5.01 4.66 4.02 5.32 3 6 C0 2.25 0 2.25 0 0 Z " fill="#B9A2E0" transform="translate(160,201)"/>
<path d="M0 0 C0.66 0.66 1.32 1.32 2 2 C0.8125 3.5 0.8125 3.5 -1 5 C-3.6875 5.1875 -3.6875 5.1875 -6 5 C-2.25 1.125 -2.25 1.125 0 0 Z " fill="#D1BB7D" transform="translate(232,182)"/>
</svg>
